<svg id="svg" version="1.1" xmlns="http://www.w3.org/2000/svg" xmlns:xlink="http://www.w3.org/1999/xlink" width="400" height="48.55491329479769" viewBox="0, 0, 400,48.55491329479769"><g id="svgg"><path id="path0" d="M24.552 0.833 C 23.269 1.035,22.648 2.305,22.972 4.066 C 23.206 5.336,23.251 30.837,23.021 31.600 C 22.348 33.830,22.394 34.687,23.235 35.579 C 24.656 37.086,26.694 36.073,27.022 33.696 C 27.403 30.938,27.532 29.376,27.613 26.513 C 27.691 23.739,27.734 23.386,28.063 22.847 C 28.263 22.519,28.499 22.129,28.588 21.980 C 30.008 19.611,31.594 17.958,32.745 17.646 C 33.109 17.548,33.557 17.362,33.741 17.234 C 34.705 16.558,35.855 17.039,36.569 18.415 L 37.000 19.247 37.001 23.999 C 37.003 28.644,37.176 31.394,37.505 32.010 C 37.596 32.179,37.735 32.940,37.816 33.700 C 38.072 36.125,38.892 37.109,40.529 36.957 C 42.249 36.797,42.833 34.876,42.060 31.917 C 41.711 30.579,41.684 30.351,41.482 27.167 C 40.904 18.016,40.792 16.920,40.351 16.090 C 40.158 15.727,40.000 15.348,40.000 15.247 C 40.000 15.147,39.756 14.829,39.458 14.541 C 36.909 12.074,32.023 12.591,28.859 15.661 C 28.478 16.031,28.069 16.333,27.950 16.333 C 27.831 16.333,27.638 16.427,27.522 16.542 C 27.351 16.710,27.328 16.286,27.404 14.333 C 27.882 2.028,27.531 0.364,24.552 0.833 M211.981 0.778 C 211.741 0.818,211.329 1.077,211.064 1.353 L 210.583 1.854 210.389 13.469 C 210.282 19.857,210.104 27.135,209.994 29.643 L 209.793 34.203 210.181 35.031 C 210.831 36.419,212.590 36.694,213.672 35.578 L 214.242 34.989 214.363 32.703 C 214.635 27.562,214.813 20.897,214.923 11.667 L 215.039 1.917 214.478 1.388 C 213.902 0.847,212.953 0.614,211.981 0.778 M223.338 4.272 C 221.640 5.701,222.575 7.649,224.965 7.661 C 227.470 7.673,228.506 5.501,226.612 4.208 C 225.774 3.636,224.054 3.669,223.338 4.272 M7.461 6.653 L 6.917 7.140 6.917 9.972 C 6.917 11.530,6.872 12.849,6.818 12.903 C 6.733 12.989,5.196 12.847,2.974 12.550 C 0.876 12.269,-0.247 14.966,1.385 16.365 C 1.872 16.782,2.042 16.822,3.417 16.845 C 4.242 16.858,5.367 16.918,5.917 16.976 L 6.917 17.083 7.037 20.750 C 7.103 22.767,7.216 26.779,7.287 29.667 C 7.445 36.058,7.483 36.167,9.540 36.167 C 11.523 36.167,11.898 34.998,11.763 29.250 C 11.713 27.142,11.630 23.587,11.578 21.350 C 11.511 18.506,11.538 17.229,11.666 17.101 C 11.776 16.991,12.933 16.885,14.575 16.834 L 17.303 16.750 17.901 16.204 C 18.561 15.603,18.724 14.536,18.288 13.674 C 17.810 12.729,15.099 12.258,12.878 12.735 C 11.537 13.022,11.553 13.048,11.461 10.417 C 11.351 7.279,10.676 6.167,8.882 6.167 C 8.148 6.167,7.916 6.246,7.461 6.653 M234.174 11.703 C 233.948 11.822,233.536 12.244,233.257 12.641 L 232.750 13.362 232.800 17.723 C 232.828 20.121,232.920 22.383,233.005 22.750 C 233.090 23.121,233.160 28.376,233.163 34.605 C 233.167 46.679,233.152 46.462,234.051 47.304 C 234.587 47.806,236.098 47.853,236.742 47.387 C 237.453 46.872,237.549 46.219,237.652 41.138 C 237.706 38.510,237.810 36.300,237.883 36.227 C 237.957 36.154,239.476 36.117,241.259 36.145 C 244.210 36.191,244.565 36.166,245.209 35.864 C 245.598 35.682,246.181 35.412,246.505 35.265 C 247.256 34.923,248.576 33.834,249.143 33.088 C 249.808 32.215,250.500 31.066,250.500 30.834 C 250.500 30.721,250.644 30.356,250.820 30.023 C 251.296 29.121,251.711 26.056,251.612 24.167 C 251.504 22.096,251.114 19.421,250.878 19.137 C 250.775 19.013,250.598 18.540,250.483 18.086 C 250.075 16.464,248.441 14.521,246.728 13.621 C 245.412 12.929,241.894 12.841,240.689 13.469 C 240.305 13.669,239.852 13.833,239.684 13.833 C 239.516 13.833,239.199 13.968,238.981 14.132 C 237.773 15.038,237.170 14.825,237.162 13.487 C 237.153 11.998,235.491 11.006,234.174 11.703 M54.667 13.155 C 53.719 13.288,52.153 13.895,51.626 14.333 C 49.243 16.314,47.000 19.483,47.000 20.867 C 47.000 21.100,46.839 21.656,46.641 22.102 C 46.086 23.358,46.076 28.740,46.628 29.797 C 46.832 30.189,47.000 30.594,47.000 30.696 C 47.000 31.745,50.334 34.857,52.059 35.418 C 52.439 35.541,53.050 35.757,53.417 35.897 C 54.637 36.364,59.548 36.269,61.032 35.750 C 61.688 35.521,62.331 35.333,62.461 35.333 C 62.591 35.333,62.888 35.183,63.121 35.000 C 63.354 34.817,63.673 34.667,63.829 34.667 C 64.141 34.667,64.978 34.092,66.078 33.124 C 67.576 31.806,67.744 29.302,66.376 28.679 C 65.461 28.261,64.000 28.656,64.000 29.320 C 64.000 29.573,62.711 30.833,62.452 30.833 C 62.320 30.833,62.030 30.976,61.808 31.151 C 61.585 31.326,61.031 31.522,60.577 31.586 C 60.122 31.651,59.422 31.845,59.020 32.018 C 58.128 32.404,56.523 32.424,55.583 32.062 C 55.217 31.921,54.565 31.727,54.134 31.632 C 53.240 31.435,50.833 29.390,50.833 28.828 C 50.833 28.452,51.815 27.667,52.285 27.667 C 52.470 27.667,52.801 27.528,53.019 27.359 C 53.238 27.189,53.636 26.997,53.904 26.932 C 54.171 26.866,54.575 26.667,54.801 26.490 C 55.027 26.312,55.318 26.167,55.448 26.167 C 55.578 26.167,55.961 26.021,56.300 25.843 C 56.639 25.664,57.442 25.286,58.083 25.003 C 58.725 24.719,59.362 24.418,59.500 24.335 C 59.637 24.251,60.460 23.829,61.328 23.396 C 65.275 21.429,66.400 18.223,64.102 15.492 C 63.564 14.853,62.190 13.833,61.866 13.833 C 61.746 13.833,61.322 13.685,60.924 13.503 C 60.102 13.129,56.336 12.919,54.667 13.155 M195.000 13.152 C 193.091 13.473,190.516 15.661,188.923 18.317 C 188.835 18.463,188.642 18.771,188.494 19.000 C 188.345 19.229,188.135 19.674,188.027 19.989 C 187.918 20.304,187.728 20.679,187.604 20.823 C 187.480 20.966,187.330 21.341,187.271 21.656 C 187.211 21.971,187.032 22.372,186.873 22.548 C 186.618 22.830,186.583 23.270,186.583 26.226 L 186.583 29.583 187.064 30.583 C 188.097 32.729,190.768 35.333,191.936 35.333 C 192.071 35.333,192.534 35.521,192.965 35.750 C 194.166 36.389,198.122 36.376,199.788 35.727 C 202.665 34.606,204.219 33.580,204.663 32.509 C 205.291 30.994,203.126 29.354,201.667 30.238 C 201.438 30.377,200.987 30.613,200.667 30.763 C 200.346 30.912,199.984 31.116,199.863 31.214 C 198.816 32.068,196.349 32.527,195.167 32.088 C 194.754 31.935,194.117 31.729,193.750 31.630 C 191.179 30.937,189.462 26.939,190.661 24.435 C 190.842 24.058,191.067 23.440,191.162 23.061 C 191.258 22.682,191.448 22.279,191.585 22.166 C 191.721 22.052,191.833 21.832,191.833 21.676 C 191.833 21.353,193.379 18.963,194.002 18.324 C 195.249 17.045,197.140 16.636,198.583 17.333 C 198.950 17.510,199.373 17.658,199.523 17.661 C 199.672 17.664,200.220 18.017,200.740 18.444 C 202.542 19.928,204.231 19.303,204.211 17.160 C 204.201 16.130,203.239 14.667,202.571 14.667 C 202.465 14.667,202.199 14.529,201.981 14.360 C 201.762 14.191,201.216 13.962,200.766 13.851 C 200.317 13.740,199.754 13.548,199.514 13.424 C 198.991 13.153,196.048 12.976,195.000 13.152 M223.417 13.179 C 223.142 13.270,222.729 13.582,222.500 13.874 L 222.083 14.403 222.036 24.330 L 221.988 34.256 222.584 34.834 C 223.262 35.491,224.900 35.683,225.397 35.164 C 226.246 34.277,226.544 33.214,226.414 31.537 C 226.269 29.666,226.271 24.171,226.418 18.417 L 226.521 14.417 225.966 13.794 C 225.351 13.102,224.365 12.864,223.417 13.179 M59.000 17.354 C 60.746 17.925,60.917 18.034,60.917 18.585 C 60.917 18.925,60.803 19.130,60.543 19.260 C 60.337 19.362,60.037 19.556,59.876 19.691 C 59.715 19.825,59.396 20.025,59.167 20.133 C 58.938 20.242,58.637 20.405,58.500 20.495 C 58.362 20.585,57.987 20.771,57.667 20.909 C 57.346 21.047,56.971 21.232,56.833 21.320 C 56.507 21.529,54.851 22.263,54.390 22.403 C 54.192 22.464,53.939 22.623,53.828 22.756 C 53.717 22.890,53.510 23.000,53.368 23.000 C 53.148 23.000,51.555 23.683,50.641 24.170 C 50.239 24.383,50.069 23.591,50.406 23.076 C 50.546 22.863,50.738 22.341,50.833 21.916 C 50.929 21.492,51.145 20.943,51.314 20.697 C 51.484 20.451,51.855 19.885,52.138 19.439 C 52.721 18.523,53.440 17.933,54.319 17.647 C 54.648 17.540,55.065 17.351,55.245 17.226 C 55.758 16.873,57.735 16.941,59.000 17.354 M244.641 17.306 C 244.884 17.475,245.216 17.660,245.378 17.719 C 245.539 17.777,245.751 18.033,245.847 18.287 C 245.944 18.541,246.145 18.883,246.293 19.047 C 246.441 19.211,246.619 19.774,246.688 20.298 C 246.757 20.821,246.897 21.662,246.999 22.167 C 247.283 23.568,247.383 26.004,247.187 26.750 C 246.639 28.842,246.443 29.443,246.233 29.680 C 246.105 29.825,246.000 30.035,246.000 30.148 C 246.000 31.495,242.202 32.713,240.135 32.029 C 239.557 31.837,238.896 31.640,238.667 31.592 C 237.756 31.398,237.760 31.412,237.607 27.798 C 237.528 25.938,237.453 23.511,237.440 22.403 L 237.417 20.390 238.458 19.374 C 239.031 18.815,239.894 18.176,240.375 17.954 C 240.856 17.733,241.512 17.432,241.833 17.286 C 242.656 16.912,244.087 16.923,244.641 17.306 " stroke="none" fill="#f2f2f2" fill-rule="evenodd"/><path id="path1" d="M0.000 24.250 L 0.000 48.500 200.000 48.500 L 400.000 48.500 400.000 40.333 C 400.000 31.834,399.957 31.335,399.326 32.515 C 397.563 35.809,386.715 37.478,383.820 34.901 C 383.675 34.772,383.466 34.667,383.355 34.667 C 382.861 34.667,380.395 31.913,379.850 30.754 C 377.544 25.841,379.829 17.510,384.315 14.475 C 387.167 12.545,393.020 12.553,395.667 14.490 C 398.763 16.755,398.685 20.226,395.484 22.597 C 395.262 22.762,390.491 25.111,388.917 25.831 C 388.550 25.999,387.537 26.470,386.667 26.877 C 385.796 27.285,384.847 27.711,384.558 27.823 C 384.269 27.935,383.857 28.215,383.641 28.445 L 383.250 28.862 384.419 29.973 C 386.800 32.235,389.298 32.807,392.583 31.841 C 394.883 31.165,395.757 30.677,396.546 29.625 C 397.495 28.360,398.216 28.149,399.250 28.833 C 399.525 29.015,399.806 29.165,399.875 29.166 C 399.944 29.166,400.000 22.604,400.000 14.583 L 400.000 0.000 200.000 0.000 L 0.000 0.000 0.000 24.250 M26.507 1.312 C 27.654 2.527,27.803 4.675,27.406 14.285 L 27.308 16.654 27.799 16.409 C 28.069 16.274,28.561 15.908,28.892 15.595 C 32.088 12.582,36.934 12.098,39.458 14.541 C 39.756 14.829,40.000 15.147,40.000 15.247 C 40.000 15.348,40.161 15.727,40.357 16.090 C 40.729 16.778,40.857 17.769,41.162 22.333 C 41.245 23.571,41.358 24.846,41.413 25.167 C 41.468 25.488,41.576 26.912,41.653 28.333 C 41.730 29.754,41.912 31.367,42.057 31.917 C 42.203 32.467,42.324 33.597,42.327 34.428 L 42.333 35.939 41.734 36.469 C 40.172 37.853,37.894 36.507,37.837 34.167 C 37.818 33.398,37.670 32.593,37.329 31.417 C 37.210 31.005,37.094 28.484,37.026 24.833 L 36.916 18.917 36.440 18.167 C 35.670 16.954,34.880 16.673,33.808 17.233 C 33.565 17.360,33.077 17.557,32.724 17.671 C 31.521 18.060,28.500 21.359,28.500 22.284 C 28.500 22.374,28.318 22.660,28.096 22.918 C 27.707 23.371,27.689 23.504,27.613 26.486 C 27.539 29.357,27.419 30.828,27.022 33.696 C 26.652 36.379,24.143 37.202,22.827 35.072 C 22.422 34.418,22.432 34.049,22.907 31.917 C 23.242 30.412,23.300 5.843,22.972 4.066 C 22.481 1.400,24.849 -0.445,26.507 1.312 M214.478 1.385 L 215.040 1.917 214.920 11.750 C 214.716 28.672,214.435 34.764,213.830 35.447 C 213.199 36.159,213.163 36.172,211.928 36.126 L 210.772 36.083 210.284 35.252 L 209.796 34.421 209.992 29.752 C 210.100 27.184,210.277 19.869,210.386 13.495 C 210.583 1.950,210.585 1.906,210.950 1.441 C 211.699 0.491,213.503 0.462,214.478 1.385 M326.124 1.348 C 326.892 2.207,326.910 2.396,326.913 9.777 C 326.915 13.642,326.973 16.861,327.041 16.929 C 327.109 16.998,327.522 16.682,327.957 16.229 C 330.111 13.987,331.962 13.123,334.660 13.101 C 339.064 13.065,340.382 14.861,340.664 21.279 C 340.858 25.705,341.424 31.664,341.776 33.000 C 342.373 35.262,341.881 36.653,340.386 36.933 C 338.771 37.236,337.947 36.438,337.569 34.206 C 337.433 33.405,337.250 32.563,337.162 32.333 C 336.923 31.715,336.635 27.460,336.518 22.833 C 336.368 16.889,335.929 16.266,332.713 17.436 C 330.807 18.130,329.310 19.761,327.636 22.967 L 327.000 24.185 326.998 26.384 C 326.993 34.327,326.402 36.344,324.144 36.127 C 322.714 35.989,322.085 34.934,322.363 33.135 C 322.692 31.008,322.857 5.575,322.552 4.203 C 322.090 2.131,322.918 0.833,324.702 0.833 C 325.566 0.833,325.711 0.886,326.124 1.348 M170.799 2.058 L 171.250 2.510 171.213 11.213 C 171.143 27.293,170.900 34.880,170.422 35.823 C 169.731 37.186,167.960 37.435,166.941 36.313 L 166.466 35.790 166.580 25.437 C 166.643 19.742,166.763 14.821,166.846 14.500 C 166.930 14.179,166.999 11.537,166.999 8.628 C 167.000 2.828,167.083 2.248,167.979 1.742 C 168.707 1.330,170.246 1.503,170.799 2.058 M182.846 2.178 L 183.351 2.750 183.245 12.417 C 183.145 21.455,182.973 28.124,182.699 33.539 C 182.584 35.811,182.580 35.831,182.068 36.343 C 181.001 37.409,179.273 37.170,178.663 35.872 L 178.297 35.093 178.505 30.255 C 178.620 27.594,178.760 20.354,178.815 14.167 L 178.917 2.917 179.333 2.356 C 180.145 1.264,181.959 1.172,182.846 2.178 M226.607 4.207 C 227.425 4.767,227.749 5.596,227.439 6.336 C 226.377 8.871,221.627 7.701,222.628 5.151 C 223.140 3.848,225.327 3.329,226.607 4.207 M352.962 4.337 C 353.530 4.785,353.858 5.602,353.712 6.204 C 353.218 8.243,349.127 8.149,348.740 6.091 C 348.395 4.248,351.313 3.036,352.962 4.337 M76.415 5.093 C 77.997 6.300,77.147 8.312,74.988 8.469 C 72.642 8.638,71.350 6.633,72.894 5.218 C 73.716 4.465,75.508 4.401,76.415 5.093 M159.627 5.237 C 161.256 6.730,159.755 8.741,157.225 8.456 C 156.353 8.358,155.414 7.582,155.247 6.820 C 154.840 4.968,158.063 3.804,159.627 5.237 M10.209 6.497 C 11.103 7.201,11.377 8.059,11.458 10.417 C 11.549 13.040,11.529 13.007,12.872 12.726 C 14.995 12.281,17.465 12.652,18.208 13.527 C 18.773 14.191,18.610 15.583,17.891 16.242 L 17.281 16.800 14.566 16.858 C 13.011 16.892,11.777 16.990,11.679 17.088 C 11.562 17.205,11.558 18.852,11.666 22.255 C 12.066 34.883,11.867 36.167,9.506 36.167 C 8.517 36.167,7.990 35.919,7.626 35.283 C 7.423 34.927,7.372 33.598,7.072 20.807 C 6.973 16.571,7.306 17.021,4.171 16.882 C 2.127 16.791,1.867 16.744,1.384 16.377 C 0.175 15.462,0.304 13.675,1.635 12.895 L 2.399 12.448 4.158 12.668 C 5.125 12.789,6.142 12.894,6.417 12.902 L 6.917 12.917 6.917 10.029 L 6.917 7.141 7.461 6.654 C 8.151 6.036,9.523 5.958,10.209 6.497 M91.144 7.560 C 91.824 8.261,92.208 10.013,92.136 12.083 L 92.083 13.583 93.000 13.543 C 98.001 13.322,99.333 13.744,99.333 15.550 C 99.333 17.045,98.080 17.666,95.062 17.666 C 93.192 17.667,92.666 17.717,92.504 17.912 C 92.346 18.102,92.327 20.016,92.421 26.454 C 92.553 35.496,92.572 35.262,91.613 36.417 C 90.960 37.203,89.381 37.155,88.674 36.327 L 88.180 35.750 88.166 31.583 C 88.144 25.124,87.900 18.197,87.684 17.938 C 87.551 17.778,86.841 17.689,85.207 17.629 C 82.550 17.530,81.924 17.291,81.425 16.184 C 80.686 14.545,82.254 13.161,84.484 13.484 C 85.180 13.585,86.200 13.686,86.750 13.709 L 87.750 13.750 87.687 10.909 C 87.625 8.097,87.629 8.063,88.030 7.596 C 88.774 6.731,90.323 6.713,91.144 7.560 M236.661 12.167 C 236.900 12.473,237.159 13.115,237.259 13.646 C 237.459 14.719,238.022 14.900,238.932 14.185 C 239.177 13.991,239.528 13.833,239.711 13.833 C 239.894 13.833,240.309 13.669,240.633 13.469 C 241.692 12.815,245.423 12.912,246.750 13.630 C 248.541 14.598,250.150 16.520,250.508 18.119 C 250.605 18.550,250.771 19.009,250.879 19.138 C 251.128 19.439,251.511 22.100,251.614 24.250 C 251.742 26.899,251.219 29.613,250.251 31.333 C 250.122 31.563,249.869 32.016,249.688 32.342 C 248.185 35.054,245.629 36.219,241.340 36.145 C 237.272 36.075,237.704 35.485,237.624 41.219 C 237.554 46.254,237.466 46.862,236.726 47.399 C 236.062 47.880,234.620 47.835,234.056 47.315 C 233.148 46.479,233.167 46.738,233.167 34.629 C 233.167 28.149,233.101 23.184,233.010 22.870 C 232.924 22.570,232.831 20.308,232.802 17.844 L 232.750 13.363 233.257 12.641 C 234.192 11.309,235.817 11.083,236.661 12.167 M118.259 12.716 C 118.771 13.156,119.240 14.973,119.432 17.266 L 119.545 18.616 118.920 19.308 C 117.618 20.749,115.833 20.088,115.477 18.033 C 115.197 16.420,113.862 16.204,111.583 17.402 C 111.308 17.546,110.950 17.665,110.787 17.666 C 110.210 17.668,108.562 18.646,107.869 19.397 C 106.698 20.667,107.033 21.375,108.898 21.575 C 109.507 21.640,110.415 21.838,110.915 22.014 C 111.416 22.189,111.959 22.333,112.123 22.333 C 112.287 22.333,112.683 22.473,113.002 22.643 C 113.322 22.814,113.771 23.009,114.000 23.077 C 114.679 23.280,116.887 24.841,117.285 25.399 C 117.868 26.219,118.667 27.913,118.667 28.330 C 118.667 28.540,118.751 28.994,118.855 29.339 C 119.454 31.339,117.964 34.400,115.788 35.636 C 111.526 38.058,102.895 37.060,101.315 33.964 C 100.182 31.743,102.720 29.800,104.550 31.487 C 107.308 34.029,114.500 33.324,114.500 30.511 C 114.500 28.237,112.966 27.143,108.525 26.246 C 104.363 25.407,102.774 24.029,102.761 21.250 C 102.750 18.615,104.439 16.087,106.706 15.346 C 107.048 15.234,107.367 15.080,107.414 15.005 C 107.461 14.929,107.893 14.774,108.374 14.661 C 108.856 14.548,109.438 14.362,109.667 14.247 C 109.896 14.133,110.421 13.984,110.833 13.917 C 111.246 13.849,111.771 13.699,112.000 13.584 C 112.229 13.468,112.808 13.291,113.287 13.190 C 113.766 13.088,114.440 12.854,114.785 12.669 C 115.724 12.166,117.650 12.192,118.259 12.716 M294.319 12.887 C 296.288 14.444,296.574 20.055,294.753 21.372 C 294.500 21.555,293.025 21.525,292.660 21.330 C 292.127 21.045,291.944 20.490,291.825 18.796 C 291.694 16.939,291.383 16.230,290.778 16.407 C 290.579 16.465,289.929 16.635,289.333 16.785 C 288.737 16.935,288.071 17.195,287.853 17.362 C 287.634 17.530,287.379 17.667,287.287 17.667 C 287.010 17.667,285.372 19.141,284.916 19.801 C 284.683 20.140,284.287 20.717,284.037 21.083 L 283.583 21.750 283.500 28.358 C 283.402 36.151,283.397 36.170,281.343 36.164 C 280.202 36.161,280.150 36.127,279.597 35.031 L 279.150 34.144 279.229 25.697 C 279.317 16.216,279.424 14.404,279.940 13.714 C 280.870 12.468,283.015 13.090,283.425 14.724 C 283.603 15.434,283.947 15.607,284.380 15.205 C 286.981 12.788,292.552 11.488,294.319 12.887 M60.964 13.504 C 61.302 13.685,61.684 13.833,61.814 13.833 C 62.202 13.833,63.720 14.926,64.165 15.525 C 65.669 17.552,65.616 19.567,64.003 21.617 C 63.415 22.365,58.823 24.892,56.972 25.487 C 56.635 25.595,56.270 25.792,56.160 25.925 C 56.049 26.058,55.791 26.167,55.585 26.167 C 55.380 26.167,55.027 26.312,54.801 26.490 C 54.575 26.667,54.171 26.866,53.904 26.932 C 53.636 26.997,53.238 27.189,53.019 27.359 C 52.801 27.528,52.505 27.667,52.361 27.667 C 51.942 27.667,50.833 28.519,50.833 28.840 C 50.833 29.323,53.100 31.304,53.894 31.515 C 54.273 31.615,54.845 31.810,55.164 31.948 C 56.157 32.376,57.953 32.420,58.917 32.040 C 59.375 31.859,60.101 31.660,60.530 31.597 C 60.959 31.534,61.484 31.348,61.697 31.184 C 61.909 31.019,62.273 30.838,62.505 30.781 C 62.737 30.725,63.150 30.366,63.422 29.984 C 64.328 28.711,64.597 28.500,65.315 28.500 C 67.075 28.500,67.829 29.984,67.023 31.862 C 66.625 32.791,64.489 34.667,63.829 34.667 C 63.673 34.667,63.354 34.817,63.121 35.000 C 62.888 35.183,62.580 35.333,62.436 35.333 C 62.292 35.333,61.666 35.525,61.045 35.760 C 59.951 36.174,59.819 36.185,56.750 36.125 C 53.451 36.061,53.444 36.059,51.417 35.138 C 49.813 34.410,47.000 31.581,47.000 30.696 C 47.000 30.594,46.831 30.189,46.625 29.797 C 46.079 28.758,46.093 23.187,46.644 22.000 C 46.836 21.587,46.994 21.068,46.996 20.847 C 47.009 19.469,49.263 16.298,51.626 14.333 C 53.151 13.065,59.152 12.533,60.964 13.504 M199.819 13.493 C 200.239 13.665,200.802 13.854,201.070 13.913 C 201.338 13.972,201.742 14.166,201.968 14.344 C 202.194 14.521,202.465 14.667,202.571 14.667 C 202.677 14.667,203.092 15.001,203.493 15.410 C 205.709 17.668,203.076 20.612,200.753 18.473 C 198.297 16.213,194.930 16.664,193.099 19.500 C 192.833 19.912,192.487 20.439,192.331 20.670 C 192.175 20.901,191.989 21.276,191.917 21.503 C 191.846 21.731,191.656 22.085,191.496 22.290 C 191.336 22.496,191.153 22.937,191.090 23.271 C 191.028 23.605,190.832 24.149,190.655 24.478 C 190.190 25.346,190.191 27.940,190.656 28.532 C 190.834 28.758,191.030 29.144,191.092 29.391 C 191.248 30.011,192.926 31.449,193.655 31.586 C 193.976 31.646,194.466 31.816,194.744 31.963 C 195.453 32.339,197.605 32.346,198.167 31.975 C 198.396 31.823,198.826 31.649,199.123 31.587 C 199.420 31.525,199.709 31.399,199.766 31.307 C 199.823 31.215,200.181 30.993,200.560 30.814 C 200.940 30.635,201.438 30.376,201.667 30.237 C 202.400 29.795,203.646 30.015,204.209 30.687 C 205.669 32.432,204.318 33.973,199.788 35.729 C 198.139 36.369,194.202 36.379,192.917 35.746 C 192.458 35.521,191.995 35.336,191.887 35.335 C 191.023 35.328,187.371 32.042,187.340 31.244 C 187.336 31.148,187.165 30.773,186.959 30.410 C 186.389 29.405,186.393 23.276,186.964 22.256 C 187.167 21.893,187.333 21.471,187.333 21.319 C 187.333 21.166,187.442 20.951,187.575 20.840 C 187.708 20.730,187.907 20.365,188.018 20.028 C 188.129 19.692,188.342 19.229,188.491 19.000 C 188.641 18.771,188.835 18.463,188.923 18.317 C 190.489 15.706,193.024 13.521,194.917 13.150 C 196.017 12.935,198.955 13.140,199.819 13.493 M225.950 13.751 L 226.517 14.334 226.419 18.375 C 226.282 24.082,226.281 29.635,226.417 31.562 C 226.601 34.168,225.869 35.411,224.151 35.411 C 223.269 35.411,223.125 35.358,222.585 34.835 L 221.990 34.258 222.037 24.328 L 222.083 14.397 222.563 13.823 C 223.423 12.797,224.991 12.763,225.950 13.751 M270.283 13.516 C 270.667 13.690,271.062 13.833,271.160 13.833 C 271.483 13.833,273.240 14.894,273.750 15.397 C 274.349 15.989,274.419 17.097,273.935 18.331 C 273.289 19.975,273.383 28.253,274.065 29.871 C 274.192 30.171,274.463 30.867,274.668 31.417 C 274.873 31.967,275.224 32.816,275.448 33.304 C 275.929 34.354,275.867 34.873,275.169 35.637 C 274.279 36.612,273.450 36.415,271.620 34.794 C 270.763 34.035,270.945 34.034,269.288 34.807 C 266.457 36.127,266.639 36.084,264.003 36.077 C 261.906 36.072,261.483 36.024,260.833 35.722 C 260.421 35.530,259.906 35.319,259.690 35.253 C 258.441 34.871,256.191 31.825,255.917 30.144 C 255.852 29.744,255.694 29.007,255.566 28.507 C 253.889 21.945,258.895 14.036,265.282 13.158 C 266.785 12.952,269.462 13.143,270.283 13.516 M313.183 13.723 C 316.854 14.985,318.199 16.960,316.577 18.710 C 315.878 19.464,314.825 19.367,313.701 18.445 C 310.524 15.839,306.941 16.854,305.084 20.886 C 304.950 21.178,304.766 21.529,304.676 21.667 C 301.456 26.585,304.014 32.302,309.446 32.329 C 310.234 32.333,312.751 31.518,313.000 31.178 C 313.758 30.142,316.183 29.838,316.986 30.679 C 318.248 31.998,317.185 33.832,314.532 34.913 C 313.918 35.163,313.042 35.528,312.583 35.725 C 311.624 36.137,306.785 36.269,306.318 35.897 C 306.189 35.794,305.783 35.616,305.417 35.502 C 302.787 34.681,300.417 32.161,299.601 29.319 C 299.086 27.526,299.405 23.174,300.160 21.689 C 300.236 21.539,300.544 20.892,300.844 20.250 C 303.741 14.060,307.846 11.888,313.183 13.723 M351.768 13.417 C 352.856 14.117,352.977 15.313,352.483 20.500 C 352.261 22.831,352.223 28.888,352.415 31.380 C 352.630 34.175,352.004 35.372,350.328 35.372 C 349.294 35.372,348.676 34.984,348.384 34.151 C 348.155 33.495,348.111 23.461,348.313 17.791 L 348.436 14.332 348.993 13.758 C 349.755 12.971,350.863 12.835,351.768 13.417 M360.969 13.448 C 361.344 13.682,361.803 14.563,362.255 15.917 C 362.378 16.283,362.677 17.108,362.920 17.750 C 363.164 18.392,363.472 19.292,363.606 19.750 C 363.739 20.208,363.933 20.733,364.035 20.917 C 364.138 21.100,364.355 21.662,364.518 22.167 C 364.682 22.671,365.047 23.721,365.330 24.500 C 365.613 25.279,365.954 26.261,366.088 26.681 C 366.508 28.006,367.361 28.402,367.598 27.382 C 367.658 27.126,367.816 26.741,367.950 26.527 C 368.084 26.313,368.329 25.751,368.495 25.277 C 368.660 24.804,368.961 24.004,369.164 23.500 C 369.781 21.963,370.350 20.456,370.611 19.667 C 370.748 19.254,370.997 18.579,371.165 18.167 C 371.333 17.754,371.709 16.778,372.000 15.998 C 372.874 13.658,373.222 13.260,374.451 13.201 C 376.204 13.116,377.224 14.439,376.571 15.950 C 376.421 16.298,376.200 16.921,376.080 17.333 C 375.961 17.746,375.587 18.721,375.251 19.500 C 374.914 20.279,374.562 21.179,374.468 21.500 C 374.375 21.821,374.241 22.158,374.170 22.250 C 374.099 22.342,373.986 22.604,373.920 22.833 C 373.807 23.223,373.390 24.178,372.648 25.750 C 372.474 26.117,372.333 26.491,372.333 26.581 C 372.333 26.671,372.156 27.121,371.939 27.581 C 371.722 28.041,371.339 28.904,371.087 29.500 C 370.558 30.753,370.214 31.537,369.606 32.875 C 369.367 33.401,369.125 34.121,369.068 34.474 C 368.796 36.176,366.589 36.852,365.431 35.587 C 364.916 35.025,364.132 33.352,363.828 32.167 C 363.746 31.846,363.526 31.286,363.339 30.923 C 363.153 30.560,363.000 30.147,362.999 30.006 C 362.998 29.865,362.878 29.525,362.732 29.250 C 362.586 28.975,362.360 28.401,362.231 27.974 C 362.102 27.547,361.885 26.984,361.749 26.724 C 361.613 26.463,361.501 26.137,361.500 26.000 C 361.499 25.863,361.378 25.525,361.232 25.250 C 360.969 24.757,360.541 23.633,360.058 22.167 C 359.923 21.754,359.673 21.117,359.505 20.750 C 359.336 20.383,358.995 19.521,358.747 18.833 C 358.500 18.146,358.155 17.275,357.982 16.898 C 356.828 14.391,358.810 12.102,360.969 13.448 M75.545 14.527 L 76.218 15.220 76.067 19.068 C 75.985 21.185,75.917 25.542,75.917 28.750 C 75.917 33.984,75.887 34.638,75.626 35.115 C 74.938 36.373,73.317 36.598,72.324 35.574 L 71.750 34.982 71.705 28.866 C 71.635 19.390,71.813 15.398,72.336 14.690 C 73.174 13.555,74.535 13.486,75.545 14.527 M125.780 13.935 C 126.427 14.109,127.020 15.191,127.111 16.364 C 127.156 16.943,127.260 17.604,127.342 17.833 C 127.424 18.063,127.604 19.487,127.741 21.000 C 127.879 22.512,128.141 24.688,128.323 25.833 C 128.506 26.979,128.714 28.367,128.786 28.917 C 128.942 30.108,129.157 30.189,129.450 29.167 C 129.568 28.754,129.772 28.192,129.903 27.917 C 130.121 27.459,130.453 26.488,131.073 24.500 C 131.408 23.423,131.803 22.198,132.094 21.333 C 132.233 20.921,132.487 20.096,132.658 19.500 C 133.340 17.129,133.636 16.221,133.936 15.576 C 135.375 12.487,138.328 13.665,138.741 17.493 C 138.805 18.085,138.953 18.797,139.069 19.076 C 139.186 19.355,139.332 20.071,139.393 20.667 C 139.503 21.728,139.802 23.502,140.516 27.333 C 140.713 28.387,140.925 29.550,140.988 29.917 C 141.221 31.277,141.845 31.228,141.830 29.850 C 141.829 29.703,142.010 28.983,142.234 28.250 C 142.729 26.621,143.139 25.026,143.348 23.917 C 143.434 23.458,143.650 22.596,143.828 22.000 C 144.007 21.404,144.227 20.504,144.317 20.000 C 144.408 19.496,144.603 18.596,144.751 18.000 C 144.899 17.404,145.139 16.440,145.283 15.857 C 145.810 13.738,147.493 13.119,148.958 14.505 C 149.813 15.313,149.652 16.981,148.324 21.083 C 148.146 21.633,148.000 22.217,148.000 22.379 C 148.000 22.542,147.807 23.292,147.571 24.046 C 147.335 24.800,147.001 25.904,146.829 26.500 C 146.657 27.096,146.287 28.318,146.008 29.217 C 145.729 30.115,145.500 30.938,145.500 31.047 C 145.500 31.514,144.269 34.291,143.407 35.768 C 141.866 38.408,138.636 36.880,137.908 33.167 C 137.845 32.846,137.697 32.396,137.580 32.166 C 137.463 31.937,137.317 31.300,137.254 30.750 C 137.192 30.200,137.040 29.375,136.917 28.917 C 136.793 28.458,136.645 27.558,136.588 26.917 C 136.484 25.761,136.151 23.468,136.071 23.362 C 135.912 23.152,135.133 23.999,134.897 24.639 C 134.739 25.067,134.547 25.500,134.471 25.601 C 134.394 25.703,134.191 26.190,134.019 26.685 C 133.848 27.179,133.577 27.958,133.419 28.417 C 133.260 28.875,132.988 29.555,132.815 29.928 C 132.642 30.300,132.500 30.698,132.500 30.812 C 132.500 30.925,132.355 31.336,132.179 31.723 C 132.002 32.111,131.804 32.651,131.739 32.922 C 131.674 33.194,131.557 33.498,131.479 33.598 C 131.401 33.697,131.226 34.095,131.090 34.481 C 130.534 36.056,129.138 37.167,128.020 36.921 C 127.595 36.828,126.500 35.729,126.500 35.396 C 126.500 35.328,126.356 34.967,126.180 34.594 C 125.862 33.921,125.532 32.833,125.066 30.917 C 124.932 30.367,124.747 29.617,124.654 29.250 C 124.562 28.883,124.345 27.608,124.173 26.417 C 124.001 25.225,123.784 24.006,123.691 23.707 C 123.599 23.409,123.472 22.547,123.409 21.791 C 123.347 21.035,123.195 19.967,123.072 19.417 C 122.129 15.199,123.108 13.219,125.780 13.935 M158.060 14.020 C 159.337 14.602,159.485 15.812,159.003 21.750 C 158.870 23.393,158.834 25.941,158.896 29.181 C 158.954 32.134,158.928 34.336,158.833 34.669 C 158.252 36.695,155.400 36.715,154.839 34.698 C 154.630 33.946,154.622 24.098,154.826 18.838 L 154.971 15.092 155.646 14.463 C 156.373 13.784,157.207 13.631,158.060 14.020 M55.432 17.142 C 55.383 17.221,54.891 17.450,54.338 17.651 C 53.786 17.853,53.333 18.084,53.333 18.164 C 53.333 18.245,53.195 18.355,53.026 18.408 C 52.857 18.462,52.473 18.898,52.173 19.378 C 51.872 19.858,51.487 20.451,51.316 20.697 C 51.146 20.943,50.929 21.492,50.833 21.916 C 50.738 22.341,50.543 22.867,50.400 23.086 C 49.687 24.173,50.336 24.325,52.097 23.484 C 52.654 23.218,53.226 23.000,53.368 23.000 C 53.510 23.000,53.716 22.891,53.826 22.759 C 53.936 22.626,54.302 22.429,54.638 22.321 C 54.975 22.213,55.362 22.027,55.500 21.909 C 55.637 21.790,55.975 21.639,56.250 21.574 C 56.525 21.509,56.900 21.326,57.083 21.167 C 57.267 21.007,57.630 20.826,57.892 20.765 C 58.153 20.703,58.565 20.514,58.808 20.346 C 59.051 20.178,59.647 19.791,60.133 19.487 C 61.138 18.857,61.276 18.260,60.500 17.901 C 58.862 17.143,55.722 16.673,55.432 17.142 M241.750 17.353 C 239.836 18.140,239.487 18.358,238.333 19.487 L 237.417 20.383 237.441 22.400 C 237.535 30.178,237.717 31.403,238.808 31.602 C 239.143 31.663,239.776 31.852,240.215 32.023 C 242.065 32.743,245.502 31.678,245.938 30.250 C 245.994 30.067,246.137 29.804,246.257 29.667 C 246.376 29.529,246.526 29.192,246.589 28.917 C 246.652 28.642,246.854 27.906,247.038 27.281 C 247.397 26.063,247.383 24.022,247.005 22.250 C 246.907 21.792,246.769 20.952,246.698 20.384 C 246.626 19.816,246.445 19.216,246.296 19.050 C 246.146 18.885,245.946 18.545,245.851 18.296 C 245.747 18.024,245.451 17.748,245.110 17.605 C 244.797 17.474,244.490 17.285,244.427 17.184 C 244.242 16.883,242.648 16.984,241.750 17.353 M265.396 17.400 C 258.370 19.676,257.570 31.834,264.417 32.281 C 265.846 32.375,267.490 31.866,268.801 30.924 C 269.894 30.139,269.928 29.946,269.566 26.583 C 269.171 22.903,269.104 21.062,269.330 20.083 C 269.979 17.272,268.630 16.352,265.396 17.400 M387.667 17.333 C 387.346 17.509,386.985 17.656,386.865 17.660 C 386.096 17.684,384.311 19.898,383.606 21.702 C 382.626 24.212,382.801 24.563,384.602 23.692 C 385.142 23.430,385.996 23.025,386.500 22.792 C 387.004 22.558,387.836 22.172,388.349 21.933 C 388.862 21.695,389.338 21.500,389.407 21.500 C 389.476 21.500,389.731 21.360,389.974 21.189 C 390.218 21.017,390.603 20.819,390.830 20.748 C 391.058 20.678,391.433 20.489,391.663 20.330 C 391.894 20.171,392.477 19.793,392.958 19.492 C 394.406 18.585,394.192 18.081,392.075 17.409 C 390.434 16.888,388.540 16.855,387.667 17.333 " stroke="none" fill-rule="evenodd" fill="#272727"/><path id="path2" d="M323.406 1.068 C 322.590 1.640,322.254 2.870,322.552 4.203 C 322.857 5.575,322.692 31.008,322.363 33.135 C 322.085 34.934,322.714 35.989,324.144 36.127 C 326.402 36.344,326.993 34.327,326.998 26.384 L 327.000 24.185 327.636 22.967 C 329.310 19.761,330.807 18.130,332.713 17.436 C 335.929 16.266,336.368 16.889,336.518 22.833 C 336.635 27.460,336.923 31.715,337.162 32.333 C 337.250 32.563,337.433 33.405,337.569 34.206 C 337.947 36.438,338.771 37.236,340.386 36.933 C 341.881 36.653,342.373 35.262,341.776 33.000 C 341.424 31.664,340.858 25.705,340.664 21.279 C 340.382 14.861,339.064 13.065,334.660 13.101 C 331.962 13.123,330.111 13.987,327.957 16.229 C 327.522 16.682,327.109 16.998,327.041 16.929 C 326.973 16.861,326.915 13.642,326.913 9.777 C 326.910 2.396,326.892 2.207,326.124 1.348 C 325.599 0.761,324.069 0.603,323.406 1.068 M167.979 1.742 C 167.083 2.248,167.000 2.828,166.999 8.628 C 166.999 11.537,166.930 14.179,166.846 14.500 C 166.763 14.821,166.643 19.742,166.580 25.437 L 166.466 35.790 166.941 36.313 C 167.960 37.435,169.731 37.186,170.422 35.823 C 170.900 34.880,171.143 27.293,171.213 11.213 L 171.250 2.510 170.799 2.058 C 170.246 1.503,168.707 1.330,167.979 1.742 M180.083 1.649 C 179.900 1.730,179.563 2.048,179.333 2.356 L 178.917 2.917 178.815 14.167 C 178.760 20.354,178.620 27.594,178.505 30.255 L 178.297 35.093 178.663 35.872 C 179.273 37.170,181.001 37.409,182.068 36.343 C 182.580 35.831,182.584 35.811,182.699 33.539 C 182.973 28.124,183.145 21.455,183.245 12.417 L 183.351 2.750 182.846 2.178 C 182.309 1.569,180.886 1.297,180.083 1.649 M349.716 4.150 C 348.505 4.910,348.386 6.240,349.446 7.170 C 350.658 8.234,353.369 7.620,353.712 6.204 C 354.128 4.491,351.405 3.091,349.716 4.150 M72.894 5.218 C 71.350 6.633,72.642 8.638,74.988 8.469 C 77.147 8.312,77.997 6.300,76.415 5.093 C 75.508 4.401,73.716 4.465,72.894 5.218 M156.102 5.015 C 154.149 6.552,155.864 8.965,158.531 8.430 C 160.232 8.090,160.832 6.341,159.627 5.237 C 158.834 4.510,156.899 4.388,156.102 5.015 M89.093 7.016 C 87.756 7.237,87.615 7.629,87.687 10.909 L 87.750 13.750 86.750 13.709 C 86.200 13.686,85.180 13.585,84.484 13.484 C 82.254 13.161,80.686 14.545,81.425 16.184 C 81.924 17.291,82.550 17.530,85.207 17.629 C 86.841 17.689,87.551 17.778,87.684 17.938 C 87.900 18.197,88.144 25.124,88.166 31.583 L 88.180 35.750 88.674 36.327 C 89.381 37.155,90.960 37.203,91.613 36.417 C 92.572 35.262,92.553 35.496,92.421 26.454 C 92.327 20.016,92.346 18.102,92.504 17.912 C 92.666 17.717,93.192 17.667,95.062 17.666 C 98.080 17.666,99.333 17.045,99.333 15.550 C 99.333 13.744,98.001 13.322,93.000 13.543 L 92.083 13.583 92.136 12.083 C 92.266 8.353,91.249 6.659,89.093 7.016 M114.785 12.669 C 114.440 12.854,113.766 13.088,113.287 13.190 C 112.808 13.291,112.229 13.468,112.000 13.584 C 111.771 13.699,111.246 13.849,110.833 13.917 C 110.421 13.984,109.896 14.133,109.667 14.247 C 109.438 14.362,108.856 14.548,108.374 14.661 C 107.893 14.774,107.461 14.929,107.414 15.005 C 107.367 15.080,107.048 15.234,106.706 15.346 C 104.439 16.087,102.750 18.615,102.761 21.250 C 102.774 24.029,104.363 25.407,108.525 26.246 C 112.966 27.143,114.500 28.237,114.500 30.511 C 114.500 33.324,107.308 34.029,104.550 31.487 C 103.218 30.259,101.354 30.855,101.075 32.599 C 100.366 37.032,112.710 38.713,116.972 34.764 C 118.407 33.435,119.306 30.844,118.855 29.339 C 118.751 28.994,118.667 28.540,118.667 28.330 C 118.667 27.913,117.868 26.219,117.285 25.399 C 116.887 24.841,114.679 23.280,114.000 23.077 C 113.771 23.009,113.322 22.814,113.002 22.643 C 112.683 22.473,112.287 22.333,112.123 22.333 C 111.959 22.333,111.416 22.189,110.915 22.014 C 110.415 21.838,109.507 21.640,108.898 21.575 C 107.033 21.375,106.698 20.667,107.869 19.397 C 108.562 18.646,110.210 17.668,110.787 17.666 C 110.950 17.665,111.308 17.546,111.583 17.402 C 113.862 16.204,115.197 16.420,115.477 18.033 C 115.833 20.088,117.618 20.749,118.920 19.308 L 119.545 18.616 119.432 17.266 C 119.240 14.973,118.771 13.156,118.259 12.716 C 117.650 12.192,115.724 12.166,114.785 12.669 M288.750 12.817 C 287.403 13.293,285.061 14.572,284.380 15.205 C 283.947 15.607,283.603 15.434,283.425 14.724 C 283.015 13.090,280.870 12.468,279.940 13.714 C 279.424 14.404,279.317 16.216,279.229 25.697 L 279.150 34.144 279.597 35.031 C 280.150 36.127,280.202 36.161,281.343 36.164 C 283.397 36.170,283.402 36.151,283.500 28.358 L 283.583 21.750 284.037 21.083 C 284.287 20.717,284.683 20.140,284.916 19.801 C 285.372 19.141,287.010 17.667,287.287 17.667 C 287.379 17.667,287.634 17.530,287.853 17.362 C 288.071 17.195,288.737 16.935,289.333 16.785 C 289.929 16.635,290.579 16.465,290.778 16.407 C 291.383 16.230,291.694 16.939,291.825 18.796 C 291.988 21.108,292.273 21.502,293.781 21.497 C 294.686 21.495,294.746 21.464,295.378 20.696 C 296.045 19.883,296.077 15.725,295.426 14.320 C 294.464 12.245,291.966 11.683,288.750 12.817 M265.282 13.158 C 258.895 14.036,253.889 21.945,255.566 28.507 C 255.694 29.007,255.852 29.744,255.917 30.144 C 256.191 31.825,258.441 34.871,259.690 35.253 C 259.906 35.319,260.421 35.530,260.833 35.722 C 261.483 36.024,261.906 36.072,264.003 36.077 C 266.639 36.084,266.457 36.127,269.288 34.807 C 270.945 34.034,270.763 34.035,271.620 34.794 C 273.450 36.415,274.279 36.612,275.169 35.637 C 275.867 34.873,275.929 34.354,275.448 33.304 C 275.224 32.816,274.873 31.967,274.668 31.417 C 274.463 30.867,274.192 30.171,274.065 29.871 C 273.383 28.253,273.289 19.975,273.935 18.331 C 274.419 17.097,274.349 15.989,273.750 15.397 C 273.240 14.894,271.483 13.833,271.160 13.833 C 271.062 13.833,270.667 13.690,270.283 13.516 C 269.462 13.143,266.785 12.952,265.282 13.158 M308.000 13.143 C 305.469 13.686,302.568 16.567,300.844 20.250 C 300.544 20.892,300.236 21.539,300.160 21.689 C 299.405 23.174,299.086 27.526,299.601 29.319 C 300.417 32.161,302.787 34.681,305.417 35.502 C 305.783 35.616,306.189 35.794,306.318 35.897 C 306.785 36.269,311.624 36.137,312.583 35.725 C 313.042 35.528,313.918 35.163,314.532 34.913 C 317.185 33.832,318.248 31.998,316.986 30.679 C 316.183 29.838,313.758 30.142,313.000 31.178 C 312.751 31.518,310.234 32.333,309.446 32.329 C 304.014 32.302,301.456 26.585,304.676 21.667 C 304.766 21.529,304.950 21.178,305.084 20.886 C 306.941 16.854,310.524 15.839,313.701 18.445 C 315.704 20.088,317.976 18.639,316.990 16.348 C 316.130 14.348,310.967 12.508,308.000 13.143 M349.900 13.109 C 349.707 13.150,349.299 13.442,348.993 13.758 L 348.436 14.332 348.313 17.791 C 348.111 23.461,348.155 33.495,348.384 34.151 C 348.676 34.984,349.294 35.372,350.328 35.372 C 352.004 35.372,352.630 34.175,352.415 31.380 C 352.223 28.888,352.261 22.831,352.483 20.500 C 353.092 14.106,352.548 12.551,349.900 13.109 M359.167 13.126 C 357.824 13.345,357.225 15.253,357.982 16.898 C 358.155 17.275,358.500 18.146,358.747 18.833 C 358.995 19.521,359.336 20.383,359.505 20.750 C 359.673 21.117,359.923 21.754,360.058 22.167 C 360.541 23.633,360.969 24.757,361.232 25.250 C 361.378 25.525,361.499 25.863,361.500 26.000 C 361.501 26.137,361.613 26.463,361.749 26.724 C 361.885 26.984,362.102 27.547,362.231 27.974 C 362.360 28.401,362.586 28.975,362.732 29.250 C 362.878 29.525,362.998 29.865,362.999 30.006 C 363.000 30.147,363.153 30.560,363.339 30.923 C 363.526 31.286,363.746 31.846,363.828 32.167 C 364.132 33.352,364.916 35.025,365.431 35.587 C 366.589 36.852,368.796 36.176,369.068 34.474 C 369.125 34.121,369.367 33.401,369.606 32.875 C 370.214 31.537,370.558 30.753,371.087 29.500 C 371.339 28.904,371.722 28.041,371.939 27.581 C 372.156 27.121,372.333 26.671,372.333 26.581 C 372.333 26.491,372.474 26.117,372.648 25.750 C 373.390 24.178,373.807 23.223,373.920 22.833 C 373.986 22.604,374.099 22.342,374.170 22.250 C 374.241 22.158,374.375 21.821,374.468 21.500 C 374.562 21.179,374.914 20.279,375.251 19.500 C 375.587 18.721,375.961 17.746,376.080 17.333 C 376.200 16.921,376.421 16.298,376.571 15.950 C 377.224 14.439,376.204 13.116,374.451 13.201 C 373.222 13.260,372.874 13.658,372.000 15.998 C 371.709 16.778,371.333 17.754,371.165 18.167 C 370.997 18.579,370.748 19.254,370.611 19.667 C 370.350 20.456,369.781 21.963,369.164 23.500 C 368.961 24.004,368.660 24.804,368.495 25.277 C 368.329 25.751,368.084 26.313,367.950 26.527 C 367.816 26.741,367.658 27.126,367.598 27.382 C 367.361 28.402,366.508 28.006,366.088 26.681 C 365.954 26.261,365.613 25.279,365.330 24.500 C 365.047 23.721,364.682 22.671,364.518 22.167 C 364.355 21.662,364.138 21.100,364.035 20.917 C 363.933 20.733,363.739 20.208,363.606 19.750 C 363.472 19.292,363.164 18.392,362.920 17.750 C 362.677 17.108,362.378 16.283,362.255 15.917 C 361.450 13.504,360.747 12.869,359.167 13.126 M387.667 13.164 C 379.748 14.386,375.923 27.453,381.774 33.292 C 382.532 34.048,383.243 34.667,383.355 34.667 C 383.466 34.667,383.675 34.772,383.820 34.901 C 386.715 37.478,397.563 35.809,399.326 32.515 C 399.428 32.323,399.622 32.167,399.756 32.167 C 399.952 32.167,400.000 31.879,399.999 30.708 L 399.997 29.250 399.341 28.875 C 398.108 28.171,397.518 28.330,396.546 29.625 C 395.757 30.677,394.883 31.165,392.583 31.841 C 389.298 32.807,386.800 32.235,384.419 29.973 L 383.250 28.862 383.641 28.445 C 383.857 28.215,384.269 27.935,384.558 27.823 C 384.847 27.711,385.796 27.285,386.667 26.877 C 387.537 26.470,388.550 25.999,388.917 25.831 C 390.491 25.111,395.262 22.762,395.484 22.597 C 401.353 18.249,396.064 11.868,387.667 13.164 M73.083 13.992 C 71.818 14.513,71.615 16.702,71.705 28.866 L 71.750 34.982 72.324 35.574 C 73.317 36.598,74.938 36.373,75.626 35.115 C 75.887 34.638,75.917 33.984,75.917 28.750 C 75.917 25.542,75.985 21.185,76.067 19.068 L 76.218 15.220 75.545 14.527 C 74.845 13.805,73.989 13.619,73.083 13.992 M123.908 13.993 C 122.667 14.496,122.383 16.335,123.072 19.417 C 123.195 19.967,123.347 21.035,123.409 21.791 C 123.472 22.547,123.599 23.409,123.691 23.707 C 123.784 24.006,124.001 25.225,124.173 26.417 C 124.345 27.608,124.562 28.883,124.654 29.250 C 124.747 29.617,124.932 30.367,125.066 30.917 C 125.532 32.833,125.862 33.921,126.180 34.594 C 126.356 34.967,126.500 35.328,126.500 35.396 C 126.500 35.729,127.595 36.828,128.020 36.921 C 129.138 37.167,130.534 36.056,131.090 34.481 C 131.226 34.095,131.401 33.697,131.479 33.598 C 131.557 33.498,131.674 33.194,131.739 32.922 C 131.804 32.651,132.002 32.111,132.179 31.723 C 132.355 31.336,132.500 30.925,132.500 30.812 C 132.500 30.698,132.642 30.300,132.815 29.928 C 132.988 29.555,133.260 28.875,133.419 28.417 C 133.577 27.958,133.848 27.179,134.019 26.685 C 134.191 26.190,134.394 25.703,134.471 25.601 C 134.547 25.500,134.739 25.067,134.897 24.639 C 135.133 23.999,135.912 23.152,136.071 23.362 C 136.151 23.468,136.484 25.761,136.588 26.917 C 136.645 27.558,136.793 28.458,136.917 28.917 C 137.040 29.375,137.192 30.200,137.254 30.750 C 137.317 31.300,137.463 31.937,137.580 32.166 C 137.697 32.396,137.845 32.846,137.908 33.167 C 138.636 36.880,141.866 38.408,143.407 35.768 C 144.269 34.291,145.500 31.514,145.500 31.047 C 145.500 30.938,145.729 30.115,146.008 29.217 C 146.287 28.318,146.657 27.096,146.829 26.500 C 147.001 25.904,147.335 24.800,147.571 24.046 C 147.807 23.292,148.000 22.542,148.000 22.379 C 148.000 22.217,148.146 21.633,148.324 21.083 C 149.652 16.981,149.813 15.313,148.958 14.505 C 147.493 13.119,145.810 13.738,145.283 15.857 C 145.139 16.440,144.899 17.404,144.751 18.000 C 144.603 18.596,144.408 19.496,144.317 20.000 C 144.227 20.504,144.007 21.404,143.828 22.000 C 143.650 22.596,143.434 23.458,143.348 23.917 C 143.139 25.026,142.729 26.621,142.234 28.250 C 142.010 28.983,141.829 29.703,141.830 29.850 C 141.845 31.228,141.221 31.277,140.988 29.917 C 140.925 29.550,140.713 28.387,140.516 27.333 C 139.802 23.502,139.503 21.728,139.393 20.667 C 139.332 20.071,139.186 19.355,139.069 19.076 C 138.953 18.797,138.805 18.085,138.741 17.493 C 138.328 13.665,135.375 12.487,133.936 15.576 C 133.636 16.221,133.340 17.129,132.658 19.500 C 132.487 20.096,132.233 20.921,132.094 21.333 C 131.803 22.198,131.408 23.423,131.073 24.500 C 130.453 26.488,130.121 27.459,129.903 27.917 C 129.772 28.192,129.568 28.754,129.450 29.167 C 129.157 30.189,128.942 30.108,128.786 28.917 C 128.714 28.367,128.506 26.979,128.323 25.833 C 128.141 24.688,127.879 22.512,127.741 21.000 C 127.604 19.487,127.424 18.063,127.342 17.833 C 127.260 17.604,127.156 16.943,127.111 16.364 C 126.954 14.333,125.580 13.316,123.908 13.993 M155.646 14.463 L 154.971 15.092 154.826 18.838 C 154.622 24.098,154.630 33.946,154.839 34.698 C 155.400 36.715,158.252 36.695,158.833 34.669 C 158.928 34.336,158.954 32.134,158.896 29.181 C 158.834 25.941,158.870 23.393,159.003 21.750 C 159.420 16.609,159.411 15.938,158.912 15.020 C 158.148 13.617,156.799 13.387,155.646 14.463 M268.833 17.392 C 269.676 17.809,269.755 18.241,269.330 20.083 C 269.104 21.062,269.171 22.903,269.566 26.583 C 269.980 30.430,269.722 30.922,266.765 31.948 C 259.419 34.495,256.819 23.364,263.569 18.267 C 265.053 17.147,267.514 16.737,268.833 17.392 M392.075 17.409 C 394.192 18.081,394.406 18.585,392.958 19.492 C 392.477 19.793,391.894 20.171,391.663 20.330 C 391.433 20.489,391.058 20.678,390.830 20.748 C 390.603 20.819,390.218 21.017,389.974 21.189 C 389.731 21.360,389.476 21.500,389.407 21.500 C 389.338 21.500,388.862 21.695,388.349 21.933 C 387.836 22.172,387.004 22.558,386.500 22.792 C 385.996 23.025,385.142 23.430,384.602 23.692 C 383.437 24.255,383.224 24.275,383.083 23.833 C 382.670 22.531,385.630 17.699,386.865 17.660 C 386.985 17.656,387.346 17.509,387.667 17.333 C 388.540 16.855,390.434 16.888,392.075 17.409 M11.569 22.167 C 11.569 23.771,11.594 24.427,11.624 23.625 C 11.655 22.823,11.655 21.510,11.624 20.708 C 11.594 19.906,11.569 20.563,11.569 22.167 M41.539 27.833 C 41.539 28.154,41.573 28.285,41.615 28.125 C 41.657 27.965,41.657 27.702,41.615 27.542 C 41.573 27.381,41.539 27.512,41.539 27.833 " stroke="none" fill="#b104f9" fill-rule="evenodd"/></g></svg>