<svg id="svg" version="1.1" xmlns="http://www.w3.org/2000/svg" xmlns:xlink="http://www.w3.org/1999/xlink" width="400" height="48.83720930232558" viewBox="0, 0, 400,48.83720930232558"><g id="svgg"><path id="path0" d="M25.337 0.817 C 26.068 0.920,26.592 1.279,26.976 1.940 C 27.076 2.111,27.159 2.154,27.162 2.036 C 27.174 1.492,26.031 0.666,25.297 0.689 L 24.583 0.711 25.337 0.817 M212.216 0.836 C 212.014 0.917,211.639 1.300,211.383 1.688 L 210.917 2.392 210.909 8.321 L 210.902 14.250 210.993 8.417 L 211.083 2.583 211.545 1.799 C 212.016 0.997,211.998 1.006,213.500 0.776 C 213.739 0.739,213.632 0.707,213.250 0.700 C 212.883 0.693,212.418 0.754,212.216 0.836 M23.690 1.393 C 23.229 1.869,23.137 2.099,23.080 2.934 L 23.013 3.917 23.169 2.917 C 23.299 2.091,23.428 1.822,23.910 1.375 C 24.232 1.077,24.436 0.833,24.364 0.833 C 24.291 0.833,23.988 1.085,23.690 1.393 M214.627 1.404 L 215.250 1.974 215.307 6.695 C 215.340 9.449,215.291 11.938,215.188 12.667 C 215.091 13.354,214.985 17.629,214.951 22.167 C 214.917 26.704,214.916 29.704,214.948 28.833 C 215.127 23.969,215.383 11.717,215.398 7.250 L 215.417 2.083 214.917 1.458 C 214.642 1.115,214.324 0.833,214.211 0.833 C 214.098 0.833,214.285 1.090,214.627 1.404 M323.068 1.025 C 322.160 1.465,321.809 3.131,322.258 4.865 C 322.461 5.646,322.496 6.408,322.423 8.389 C 322.372 9.779,322.259 15.829,322.172 21.833 C 322.085 27.837,321.968 33.275,321.912 33.917 C 321.682 36.551,324.384 37.496,325.725 35.250 C 326.273 34.331,326.364 33.488,326.632 26.833 L 326.750 23.917 327.395 22.770 C 329.159 19.636,330.624 18.147,332.640 17.440 C 335.543 16.423,336.167 17.384,336.167 22.874 C 336.167 29.626,336.989 35.522,338.097 36.717 C 338.757 37.430,340.320 37.380,341.023 36.625 C 341.914 35.669,341.951 35.316,341.400 33.083 C 341.072 31.756,340.521 25.757,340.334 21.484 C 340.170 17.726,339.946 16.688,338.966 15.130 C 337.274 12.440,331.704 12.505,328.718 15.250 C 327.522 16.350,327.152 16.722,327.017 16.964 C 326.885 17.199,326.829 17.204,326.580 16.997 C 326.323 16.784,326.307 16.505,326.419 14.172 C 326.785 6.555,326.551 2.169,325.733 1.315 C 325.235 0.796,323.852 0.645,323.068 1.025 M168.143 1.753 C 167.332 2.193,167.266 2.653,167.139 8.750 C 166.809 24.565,166.643 35.550,166.729 35.893 C 167.187 37.718,169.951 37.709,170.776 35.879 C 171.291 34.733,171.823 3.652,171.346 2.521 C 170.953 1.588,169.214 1.171,168.143 1.753 M180.338 1.704 C 179.178 2.318,179.257 1.386,179.038 17.120 C 178.916 25.870,178.776 31.464,178.670 31.740 C 178.106 33.224,178.711 36.725,179.589 37.063 C 180.428 37.384,181.826 37.172,182.290 36.652 C 182.967 35.896,182.988 35.722,183.097 29.917 C 183.152 26.983,183.260 24.358,183.338 24.083 C 183.415 23.808,183.531 18.924,183.594 13.229 L 183.709 2.875 183.132 2.245 C 182.476 1.530,181.152 1.273,180.338 1.704 M27.261 9.518 C 27.272 17.503,27.267 17.333,27.494 17.333 C 27.582 17.333,28.126 16.895,28.702 16.359 C 30.546 14.644,31.557 14.040,33.667 13.392 L 34.417 13.161 33.675 13.254 C 33.267 13.306,32.854 13.410,32.758 13.486 C 32.662 13.561,32.283 13.719,31.917 13.836 C 31.157 14.079,30.735 14.375,29.310 15.667 C 27.269 17.515,27.242 17.491,27.419 13.952 C 27.598 10.339,27.592 4.243,27.407 3.185 C 27.298 2.561,27.253 4.501,27.261 9.518 M223.866 4.348 C 223.481 4.631,223.175 4.987,223.186 5.139 C 223.204 5.396,223.211 5.396,223.278 5.141 C 223.358 4.842,224.407 4.087,224.927 3.954 C 225.231 3.877,225.230 3.871,224.908 3.853 C 224.720 3.842,224.251 4.065,223.866 4.348 M226.245 3.955 C 226.726 4.077,227.681 4.847,227.840 5.242 C 227.927 5.455,227.982 5.490,227.987 5.333 C 228.003 4.836,226.834 3.823,226.279 3.853 C 225.947 3.870,225.944 3.879,226.245 3.955 M349.750 3.993 C 347.830 4.792,348.104 7.222,350.165 7.685 C 353.192 8.365,354.813 5.159,352.031 3.995 C 351.567 3.801,350.214 3.800,349.750 3.993 M23.212 4.833 C 23.212 5.246,23.245 5.415,23.284 5.208 C 23.324 5.002,23.324 4.665,23.284 4.458 C 23.245 4.252,23.212 4.421,23.212 4.833 M73.083 4.826 C 71.799 5.357,71.520 6.996,72.553 7.942 C 74.280 9.524,77.593 7.960,76.756 5.958 C 76.301 4.868,74.398 4.282,73.083 4.826 M156.333 5.034 C 155.601 5.530,155.270 6.194,155.403 6.902 C 155.844 9.251,160.417 8.961,160.417 6.583 C 160.417 4.927,157.900 3.972,156.333 5.034 M23.277 9.442 C 23.216 11.520,23.180 17.427,23.196 22.569 L 23.226 31.917 23.339 18.833 C 23.401 11.637,23.438 5.731,23.419 5.707 C 23.401 5.684,23.337 7.364,23.277 9.442 M227.891 6.168 C 227.826 6.494,227.555 6.843,227.113 7.168 C 226.740 7.442,226.512 7.667,226.606 7.667 C 226.937 7.667,227.971 6.579,228.072 6.125 C 228.127 5.873,228.132 5.667,228.082 5.667 C 228.032 5.667,227.947 5.892,227.891 6.168 M7.615 6.708 C 7.314 7.006,7.267 7.078,7.510 6.867 C 7.753 6.656,8.169 6.419,8.434 6.340 C 8.847 6.216,8.862 6.193,8.539 6.181 C 8.323 6.173,7.929 6.398,7.615 6.708 M9.362 6.311 C 10.191 6.507,10.787 7.223,11.002 8.280 C 11.369 10.092,11.465 10.442,11.483 10.033 C 11.561 8.262,10.390 6.141,9.361 6.186 L 8.917 6.206 9.362 6.311 M223.178 6.536 C 223.167 6.812,224.237 7.672,224.580 7.661 C 224.674 7.659,224.452 7.473,224.087 7.249 C 223.722 7.025,223.371 6.709,223.307 6.546 C 223.200 6.275,223.189 6.274,223.178 6.536 M87.961 7.488 L 87.417 7.976 87.438 10.905 C 87.458 13.745,87.430 13.924,86.966 13.856 C 86.368 13.768,83.496 13.477,83.189 13.473 C 81.739 13.453,80.515 15.143,81.112 16.340 C 81.641 17.400,82.344 17.663,85.013 17.796 L 87.412 17.917 87.526 18.583 C 87.589 18.950,87.696 23.012,87.763 27.610 L 87.886 35.969 88.434 36.568 C 89.329 37.544,90.752 37.472,91.563 36.409 C 92.373 35.349,92.411 34.739,92.219 25.833 C 92.116 21.025,92.115 18.174,92.215 18.042 C 92.326 17.896,92.982 17.831,94.395 17.826 C 97.690 17.814,98.864 17.315,99.102 15.826 C 99.388 14.033,97.252 13.203,93.316 13.577 C 91.611 13.738,91.576 13.709,91.858 12.344 C 92.604 8.731,90.081 5.587,87.961 7.488 M225.211 7.786 C 225.464 7.825,225.839 7.824,226.044 7.784 C 226.249 7.744,226.042 7.713,225.583 7.714 C 225.125 7.716,224.957 7.748,225.211 7.786 M6.894 9.417 C 6.895 10.333,6.923 10.687,6.956 10.203 C 6.990 9.718,6.990 8.968,6.956 8.536 C 6.921 8.104,6.894 8.500,6.894 9.417 M11.247 11.696 C 11.100 12.956,11.307 13.181,12.574 13.139 C 13.334 13.113,13.351 13.105,12.750 13.053 C 11.267 12.923,11.294 12.950,11.423 11.744 C 11.487 11.151,11.500 10.667,11.452 10.667 C 11.405 10.667,11.312 11.130,11.247 11.696 M7.028 12.092 C 7.013 12.463,6.944 12.838,6.875 12.926 C 6.806 13.014,6.849 13.002,6.970 12.900 C 7.107 12.784,7.165 12.472,7.123 12.066 L 7.056 11.417 7.028 12.092 M234.583 12.023 C 233.978 12.554,233.327 13.737,233.341 14.283 C 233.345 14.448,233.447 14.321,233.568 14.000 C 234.023 12.792,234.142 12.573,234.562 12.183 C 234.799 11.962,235.276 11.727,235.621 11.660 C 236.248 11.539,236.249 11.538,235.714 11.519 C 235.334 11.506,235.006 11.651,234.583 12.023 M236.647 11.938 C 237.188 12.317,237.500 13.160,237.500 14.245 C 237.500 15.255,237.959 15.502,238.740 14.911 C 239.128 14.618,238.961 14.584,238.511 14.865 C 238.038 15.160,237.667 14.776,237.667 13.990 C 237.667 12.963,236.979 11.667,236.434 11.667 C 236.338 11.667,236.434 11.789,236.647 11.938 M115.417 12.489 C 115.142 12.556,114.692 12.727,114.417 12.869 C 114.142 13.010,113.540 13.206,113.080 13.303 C 112.620 13.400,112.020 13.597,111.747 13.739 C 111.473 13.881,111.091 13.998,110.897 13.999 C 109.165 14.004,105.064 16.005,103.917 17.405 C 100.721 21.306,102.720 25.388,108.333 26.421 C 113.129 27.304,115.309 29.223,114.176 31.564 C 113.112 33.762,106.916 33.829,104.356 31.670 C 101.948 29.639,99.494 32.864,101.789 35.045 C 104.367 37.494,112.235 37.999,115.627 35.933 C 119.248 33.728,119.889 29.234,117.119 25.469 C 116.067 24.038,111.632 22.031,108.869 21.735 C 104.908 21.310,107.504 18.472,113.236 16.961 L 114.555 16.614 114.919 17.037 C 115.124 17.276,115.330 17.810,115.393 18.265 C 115.798 21.219,119.341 20.765,119.327 17.761 C 119.305 13.391,118.144 11.825,115.417 12.489 M289.750 12.481 C 288.827 12.615,286.752 13.338,286.041 13.773 C 284.783 14.543,284.210 14.935,283.798 15.308 C 283.275 15.782,282.937 15.636,282.781 14.871 C 282.521 13.591,281.054 12.837,279.771 13.325 C 278.754 13.712,278.666 14.625,278.564 25.867 L 278.486 34.483 278.916 35.331 C 279.415 36.317,279.902 36.575,280.988 36.430 C 282.788 36.190,282.833 35.998,282.836 28.550 C 282.838 23.334,282.880 22.178,283.081 21.833 C 283.215 21.604,283.441 21.170,283.584 20.869 C 283.904 20.192,285.906 18.146,286.583 17.803 C 286.858 17.664,287.308 17.431,287.583 17.285 C 288.224 16.945,290.263 16.483,290.582 16.606 C 290.909 16.731,291.165 17.708,291.166 18.834 C 291.168 20.848,291.733 21.667,293.121 21.667 C 294.915 21.667,295.443 20.538,295.287 17.033 C 295.115 13.140,293.627 11.916,289.750 12.481 M2.257 12.816 C 1.907 12.955,4.441 13.187,5.817 13.142 C 6.248 13.127,5.927 13.066,5.083 13.001 C 4.258 12.938,3.358 12.841,3.083 12.786 C 2.808 12.731,2.437 12.745,2.257 12.816 M13.833 12.846 C 13.477 12.971,13.501 12.982,14.000 12.925 C 16.394 12.649,18.500 13.491,18.500 14.724 C 18.500 16.297,17.586 16.807,14.644 16.875 L 12.417 16.927 14.683 16.964 L 16.950 17.000 17.633 16.505 C 18.816 15.648,19.031 14.580,18.207 13.658 C 17.540 12.911,14.995 12.439,13.833 12.846 M1.169 13.326 C 0.941 13.501,0.791 13.680,0.836 13.724 C 0.880 13.768,1.142 13.623,1.417 13.403 C 2.005 12.931,1.776 12.859,1.169 13.326 M36.866 13.311 C 37.205 13.385,37.601 13.543,37.745 13.663 C 37.890 13.783,38.046 13.843,38.091 13.798 C 38.275 13.614,37.639 13.300,36.965 13.241 L 36.250 13.178 36.866 13.311 M53.869 13.593 C 51.935 14.240,48.646 17.064,48.672 18.055 C 48.675 18.162,48.761 18.100,48.863 17.917 C 50.145 15.622,52.500 13.997,55.583 13.283 C 55.849 13.221,55.832 13.204,55.500 13.196 C 55.271 13.192,54.537 13.370,53.869 13.593 M59.399 13.342 C 59.847 13.418,60.431 13.569,60.696 13.679 C 60.961 13.788,61.213 13.842,61.257 13.798 C 61.395 13.661,59.654 13.166,59.106 13.186 C 58.708 13.201,58.777 13.238,59.399 13.342 M194.667 13.500 C 194.346 13.676,194.145 13.823,194.219 13.826 C 194.294 13.830,194.519 13.745,194.719 13.638 C 194.920 13.530,195.308 13.388,195.583 13.321 C 196.035 13.212,196.043 13.200,195.667 13.191 C 195.438 13.185,194.987 13.324,194.667 13.500 M198.333 13.312 C 198.746 13.378,199.247 13.522,199.447 13.633 C 199.648 13.743,199.948 13.830,200.114 13.826 C 200.675 13.812,199.091 13.293,198.333 13.242 L 197.583 13.191 198.333 13.312 M223.418 13.738 C 222.670 14.530,222.495 15.415,222.532 18.199 L 222.563 20.583 222.671 18.000 C 222.804 14.799,222.996 14.140,223.995 13.451 C 224.222 13.294,224.306 13.167,224.182 13.167 C 224.058 13.167,223.714 13.424,223.418 13.738 M225.643 13.396 C 225.859 13.516,226.253 13.937,226.518 14.332 C 227.070 15.154,227.175 15.073,226.653 14.228 C 226.297 13.652,225.725 13.162,225.421 13.173 C 225.327 13.176,225.427 13.276,225.643 13.396 M241.750 13.491 C 241.383 13.664,241.182 13.812,241.303 13.820 C 241.423 13.827,241.686 13.744,241.886 13.636 C 242.086 13.527,242.512 13.386,242.833 13.322 C 243.403 13.208,243.405 13.205,242.917 13.190 C 242.642 13.182,242.117 13.317,241.750 13.491 M245.750 13.321 C 246.025 13.388,246.425 13.536,246.639 13.651 C 246.853 13.766,247.062 13.827,247.104 13.785 C 247.235 13.654,246.049 13.166,245.641 13.184 C 245.312 13.198,245.329 13.220,245.750 13.321 M264.000 13.330 C 261.231 14.012,259.091 15.438,256.963 18.018 C 253.272 22.493,253.852 32.020,257.989 34.887 C 260.056 36.319,264.384 36.983,266.167 36.141 C 267.214 35.646,269.746 34.522,269.933 34.469 C 270.034 34.440,270.409 34.657,270.766 34.950 C 272.543 36.409,272.508 36.389,273.289 36.389 C 274.522 36.389,275.611 34.511,274.830 33.730 C 274.660 33.560,274.435 33.008,273.442 30.333 L 272.917 28.917 272.917 24.000 C 272.917 19.291,272.933 19.038,273.300 18.018 C 274.037 15.966,273.508 15.315,269.750 13.652 C 268.832 13.246,265.174 13.041,264.000 13.330 M307.000 13.332 C 302.786 14.710,298.661 21.396,298.669 26.833 C 298.677 32.090,302.508 36.072,307.904 36.431 C 313.161 36.781,318.873 33.130,316.542 30.910 C 315.788 30.193,314.410 29.971,314.075 30.514 C 314.026 30.593,313.671 30.807,313.285 30.991 C 312.899 31.175,312.471 31.399,312.333 31.490 C 309.017 33.684,303.838 31.982,302.903 28.391 C 301.891 24.507,305.535 17.560,308.833 17.085 C 309.979 16.920,312.047 17.629,313.208 18.585 C 315.271 20.284,317.734 18.513,316.422 16.274 C 315.197 14.184,309.671 12.458,307.000 13.332 M349.333 13.289 C 348.065 13.773,348.021 14.112,347.896 24.500 C 347.765 35.423,347.811 35.667,350.000 35.667 C 351.993 35.667,352.186 35.012,352.062 28.674 C 351.999 25.399,352.036 22.885,352.173 21.167 C 352.569 16.228,352.566 15.304,352.155 14.430 C 351.647 13.349,350.446 12.863,349.333 13.289 M357.958 13.837 C 357.183 14.612,357.132 15.679,357.798 17.167 C 357.983 17.579,358.338 18.479,358.586 19.167 C 358.834 19.854,359.178 20.725,359.352 21.102 C 359.525 21.478,359.667 21.891,359.668 22.018 C 359.668 22.146,359.772 22.448,359.898 22.690 C 360.024 22.931,360.251 23.501,360.402 23.955 C 360.553 24.410,360.824 25.072,361.005 25.426 C 361.186 25.781,361.333 26.171,361.333 26.294 C 361.333 26.418,361.478 26.836,361.654 27.223 C 361.831 27.611,362.027 28.132,362.089 28.381 C 362.152 28.630,362.345 29.112,362.518 29.452 C 362.692 29.792,362.833 30.181,362.833 30.316 C 362.833 30.451,362.974 30.866,363.147 31.239 C 363.319 31.612,363.588 32.292,363.744 32.750 C 364.635 35.363,365.057 36.050,365.958 36.347 C 367.380 36.816,368.630 36.072,368.905 34.591 C 368.973 34.229,369.209 33.592,369.431 33.176 C 369.652 32.760,369.833 32.321,369.833 32.201 C 369.833 32.081,369.978 31.705,370.154 31.366 C 370.330 31.027,370.712 30.188,371.002 29.500 C 371.292 28.813,371.633 28.025,371.760 27.750 C 371.886 27.475,372.221 26.688,372.503 26.000 C 372.785 25.313,373.155 24.450,373.324 24.083 C 373.494 23.717,373.687 23.229,373.755 23.000 C 373.823 22.771,373.981 22.435,374.106 22.255 C 374.231 22.074,374.334 21.774,374.334 21.588 C 374.334 21.402,374.471 21.025,374.638 20.750 C 374.805 20.475,375.063 19.912,375.210 19.500 C 375.357 19.087,375.715 18.112,376.005 17.333 C 377.021 14.603,376.508 13.217,374.469 13.178 C 373.221 13.155,373.073 13.321,371.741 16.250 C 371.458 16.873,370.892 18.493,370.588 19.551 C 370.462 19.992,370.288 20.442,370.201 20.551 C 370.114 20.660,369.950 21.050,369.835 21.417 C 369.721 21.783,369.527 22.308,369.404 22.583 C 369.282 22.858,369.058 23.421,368.907 23.833 C 368.422 25.155,368.065 26.068,367.797 26.667 C 367.653 26.988,367.454 27.456,367.355 27.708 C 367.019 28.559,366.114 28.046,365.903 26.884 C 365.840 26.535,365.658 25.988,365.498 25.667 C 365.338 25.346,365.153 24.821,365.087 24.500 C 365.021 24.179,364.865 23.755,364.740 23.557 C 364.615 23.359,364.425 22.834,364.317 22.390 C 364.210 21.947,363.982 21.349,363.811 21.064 C 363.640 20.778,363.499 20.365,363.498 20.147 C 363.498 19.929,363.312 19.375,363.087 18.917 C 362.862 18.458,362.675 17.954,362.672 17.796 C 362.669 17.638,362.524 17.188,362.349 16.796 C 362.174 16.404,361.855 15.607,361.640 15.024 C 360.896 13.002,359.305 12.489,357.958 13.837 M387.000 13.325 C 381.719 14.599,378.123 21.293,378.997 28.223 C 379.411 31.511,382.019 34.863,384.753 35.625 C 385.118 35.726,385.754 35.939,386.167 36.098 C 388.343 36.936,393.401 36.402,396.167 35.042 C 397.711 34.283,399.266 33.141,399.421 32.652 C 399.477 32.477,399.630 32.333,399.761 32.333 C 399.951 32.333,400.000 32.024,400.000 30.833 C 400.000 29.860,399.936 29.333,399.818 29.333 C 399.718 29.333,399.445 29.183,399.212 29.000 C 398.342 28.315,397.447 28.587,396.526 29.816 C 395.833 30.742,394.645 31.536,393.621 31.759 C 393.325 31.823,392.642 32.016,392.103 32.188 C 389.349 33.065,386.137 32.148,383.959 29.864 L 383.167 29.034 383.747 28.525 C 384.067 28.244,384.630 27.925,384.999 27.814 C 385.368 27.703,385.754 27.512,385.856 27.390 C 385.958 27.267,386.118 27.167,386.212 27.167 C 386.306 27.167,386.766 26.987,387.233 26.767 C 387.701 26.548,388.496 26.181,389.000 25.952 C 391.149 24.976,394.968 23.058,395.583 22.645 C 397.269 21.513,398.251 19.492,397.863 17.955 C 397.766 17.567,397.645 17.053,397.595 16.813 C 397.397 15.858,395.543 14.322,393.840 13.701 C 392.653 13.268,388.240 13.026,387.000 13.325 M38.702 14.092 C 38.951 14.227,39.420 14.685,39.744 15.110 C 40.068 15.534,40.333 15.804,40.333 15.710 C 40.333 15.433,38.756 13.833,38.492 13.840 C 38.359 13.844,38.454 13.957,38.702 14.092 M61.848 13.993 C 62.504 14.192,63.160 14.640,64.152 15.571 C 64.649 16.036,64.902 16.213,64.716 15.963 C 63.987 14.989,62.327 13.819,61.717 13.848 C 61.520 13.857,61.565 13.907,61.848 13.993 M193.100 14.249 C 192.483 14.668,190.868 16.229,190.252 17.001 C 190.070 17.230,190.483 16.854,191.170 16.167 C 191.857 15.479,192.787 14.673,193.238 14.375 C 193.689 14.077,193.980 13.833,193.885 13.833 C 193.791 13.833,193.437 14.021,193.100 14.249 M200.833 13.995 C 202.419 14.501,204.114 15.743,204.480 16.667 C 204.571 16.896,204.650 16.967,204.656 16.824 C 204.692 15.946,201.899 13.822,200.750 13.853 C 200.479 13.860,200.495 13.887,200.833 13.995 M239.750 14.246 C 239.383 14.471,239.160 14.659,239.255 14.661 C 239.349 14.664,239.598 14.546,239.808 14.399 C 240.018 14.252,240.391 14.071,240.636 13.997 C 240.977 13.894,241.004 13.859,240.750 13.849 C 240.567 13.841,240.117 14.020,239.750 14.246 M247.629 14.007 C 248.255 14.258,250.293 16.436,250.413 16.982 C 250.472 17.254,250.629 17.566,250.761 17.676 C 250.892 17.785,251.000 17.990,251.000 18.132 C 251.000 18.273,251.045 18.344,251.101 18.288 C 251.535 17.854,248.328 13.819,247.569 13.844 C 247.294 13.853,247.302 13.876,247.629 14.007 M72.244 14.458 C 71.406 15.338,71.420 15.164,71.368 25.444 L 71.318 35.138 71.835 35.727 C 72.829 36.858,74.714 36.670,75.298 35.381 C 75.550 34.823,75.583 34.064,75.583 28.833 C 75.583 25.579,75.651 21.336,75.734 19.405 C 75.902 15.477,75.882 15.303,75.162 14.542 C 74.445 13.783,72.928 13.740,72.244 14.458 M123.310 14.542 C 122.425 15.492,122.324 16.766,122.942 19.167 C 123.071 19.671,123.255 20.898,123.350 21.894 C 123.445 22.890,123.596 23.898,123.686 24.135 C 123.777 24.372,123.957 25.426,124.087 26.477 C 124.218 27.527,124.432 28.731,124.564 29.152 C 124.697 29.572,124.853 30.322,124.912 30.818 C 124.970 31.313,125.118 31.913,125.240 32.151 C 125.362 32.389,125.551 33.013,125.659 33.539 C 125.767 34.064,125.920 34.534,125.999 34.583 C 126.078 34.631,126.235 34.952,126.347 35.294 C 127.215 37.928,130.123 37.629,131.110 34.804 C 131.471 33.772,131.977 32.422,132.504 31.083 C 132.793 30.350,133.146 29.375,133.288 28.917 C 133.429 28.458,133.648 27.935,133.773 27.755 C 133.898 27.574,134.000 27.274,134.001 27.088 C 134.001 26.902,134.226 26.300,134.500 25.750 C 134.774 25.200,134.999 24.659,134.999 24.548 C 135.000 24.353,135.819 23.500,136.007 23.500 C 136.128 23.500,136.464 25.572,136.601 27.167 C 136.660 27.854,136.774 28.591,136.854 28.803 C 136.935 29.016,137.080 29.728,137.178 30.387 C 137.275 31.045,137.500 32.015,137.677 32.542 C 137.855 33.070,138.000 33.609,138.000 33.741 C 138.000 34.754,139.834 37.202,140.768 37.436 C 142.145 37.782,145.000 34.662,145.000 32.812 C 145.000 32.651,145.065 32.480,145.144 32.431 C 145.223 32.382,145.380 31.984,145.494 31.546 C 145.607 31.108,145.880 30.206,146.100 29.540 C 146.320 28.875,146.500 28.177,146.500 27.989 C 146.500 27.802,146.642 27.334,146.815 26.949 C 146.988 26.565,147.184 25.912,147.251 25.500 C 147.318 25.087,147.469 24.562,147.587 24.331 C 147.705 24.101,147.894 23.426,148.008 22.831 C 148.121 22.237,148.290 21.603,148.382 21.423 C 148.536 21.123,148.730 20.373,149.439 17.333 C 149.929 15.231,149.215 14.000,147.504 14.000 C 146.001 14.000,145.472 14.715,145.019 17.360 C 144.914 17.971,144.726 18.721,144.601 19.027 C 144.476 19.333,144.321 20.020,144.257 20.554 C 144.192 21.087,144.030 21.786,143.896 22.107 C 143.762 22.428,143.549 23.228,143.422 23.887 C 143.102 25.553,142.684 27.252,142.329 28.333 C 142.163 28.837,141.940 29.685,141.833 30.218 C 141.713 30.817,141.565 31.161,141.445 31.120 C 141.221 31.046,140.588 28.256,140.321 26.167 C 140.221 25.387,140.001 24.113,139.832 23.333 C 139.662 22.554,139.473 21.392,139.411 20.750 C 139.350 20.108,139.233 19.460,139.153 19.309 C 139.073 19.159,138.898 18.371,138.764 17.559 C 138.011 12.990,134.316 12.603,133.422 17.000 C 133.292 17.643,132.607 19.872,132.219 20.917 C 132.083 21.283,131.871 21.958,131.747 22.417 C 131.475 23.432,131.083 24.638,130.666 25.750 C 130.494 26.208,130.266 26.921,130.160 27.333 C 130.054 27.746,129.905 28.159,129.829 28.252 C 129.753 28.345,129.602 28.778,129.492 29.213 C 129.111 30.727,128.786 30.294,128.602 28.029 C 128.541 27.266,128.378 26.107,128.240 25.455 C 128.103 24.802,127.882 23.139,127.750 21.759 C 127.617 20.379,127.436 18.800,127.347 18.250 C 127.259 17.700,127.140 16.828,127.083 16.312 C 126.843 14.113,124.662 13.090,123.310 14.542 M155.666 14.584 L 155.101 15.167 154.979 18.709 C 154.796 24.037,154.809 34.324,155.001 35.012 C 155.276 36.002,155.856 36.411,156.988 36.411 C 159.045 36.411,159.181 35.959,159.063 29.500 C 159.002 26.206,159.040 23.507,159.170 21.833 C 159.626 15.964,159.534 15.010,158.442 14.245 C 157.732 13.748,156.308 13.921,155.666 14.584 M0.682 15.361 C 0.631 16.295,1.770 16.844,3.917 16.920 L 5.417 16.974 4.083 16.844 C 2.093 16.649,1.033 16.242,0.846 15.599 C 0.764 15.315,0.690 15.208,0.682 15.361 M227.060 16.667 C 227.060 17.537,227.088 17.894,227.123 17.458 C 227.157 17.023,227.157 16.310,227.123 15.875 C 227.088 15.440,227.060 15.796,227.060 16.667 M40.337 16.090 C 40.335 16.185,40.481 16.672,40.661 17.173 C 40.841 17.674,40.991 17.923,40.994 17.727 C 40.997 17.530,40.852 17.043,40.670 16.643 C 40.489 16.244,40.339 15.995,40.337 16.090 M233.368 17.833 C 233.357 18.429,233.428 19.254,233.526 19.667 C 233.638 20.140,233.746 25.205,233.818 33.417 L 233.933 46.417 233.953 34.917 C 233.971 24.403,233.900 21.628,233.520 18.000 L 233.389 16.750 233.368 17.833 M6.167 17.150 C 7.271 17.297,7.300 17.540,7.485 27.917 C 7.601 34.416,7.614 34.641,7.621 30.333 C 7.630 25.343,7.441 19.213,7.244 18.083 C 7.083 17.166,6.901 16.996,6.105 17.025 L 5.417 17.050 6.167 17.150 M11.708 17.110 C 11.564 17.168,11.510 17.564,11.532 18.389 L 11.564 19.583 11.621 18.500 C 11.662 17.737,11.760 17.355,11.954 17.208 C 12.229 17.001,12.104 16.951,11.708 17.110 M34.542 17.119 C 34.794 17.158,35.206 17.158,35.458 17.119 C 35.710 17.081,35.504 17.050,35.000 17.050 C 34.496 17.050,34.290 17.081,34.542 17.119 M56.547 17.123 C 56.985 17.157,57.660 17.157,58.047 17.122 C 58.434 17.087,58.075 17.059,57.250 17.059 C 56.425 17.060,56.109 17.088,56.547 17.123 M65.288 18.035 C 65.475 20.307,64.256 22.145,61.779 23.322 C 61.153 23.619,60.672 23.894,60.711 23.933 C 60.802 24.024,62.429 23.196,63.170 22.679 C 64.993 21.410,65.927 19.406,65.450 17.783 L 65.196 16.917 65.288 18.035 M196.708 17.121 C 197.052 17.157,197.615 17.157,197.958 17.121 C 198.302 17.085,198.021 17.056,197.333 17.056 C 196.646 17.056,196.365 17.085,196.708 17.121 M243.458 17.121 C 243.756 17.158,244.244 17.158,244.542 17.121 C 244.840 17.084,244.596 17.053,244.000 17.053 C 243.404 17.053,243.160 17.084,243.458 17.121 M267.893 17.427 C 269.073 17.968,269.049 17.913,268.751 19.330 C 268.471 20.659,268.435 23.469,268.674 25.250 C 268.760 25.892,268.878 27.283,268.937 28.341 L 269.043 30.266 268.199 30.973 C 265.819 32.966,261.942 32.977,260.350 30.996 C 259.197 29.560,258.505 24.953,259.230 23.533 C 259.356 23.286,259.516 22.822,259.585 22.502 C 259.654 22.182,259.888 21.687,260.105 21.403 C 260.322 21.118,260.500 20.811,260.500 20.721 C 260.500 20.631,260.931 20.135,261.458 19.620 C 263.752 17.376,266.062 16.589,267.893 17.427 M392.123 17.573 C 393.435 17.994,393.835 18.296,393.832 18.864 C 393.831 19.077,393.557 19.276,392.000 20.190 C 390.358 21.154,385.795 23.333,385.418 23.333 C 385.305 23.333,385.033 23.471,384.814 23.640 C 382.818 25.180,382.411 23.889,383.957 20.917 C 384.100 20.642,384.326 20.206,384.459 19.949 C 384.839 19.213,386.184 17.993,386.917 17.720 C 387.283 17.583,387.846 17.364,388.167 17.233 C 388.966 16.906,390.435 17.032,392.123 17.573 M32.730 17.599 C 31.056 18.391,29.199 20.638,27.783 23.583 C 27.399 24.383,27.379 24.597,27.301 28.833 C 27.216 33.496,27.371 32.513,27.630 26.750 C 27.744 24.234,27.818 23.660,28.091 23.195 C 28.270 22.889,28.532 22.434,28.673 22.182 C 29.837 20.105,31.569 18.302,33.031 17.648 C 33.610 17.388,33.971 17.180,33.833 17.185 C 33.696 17.190,33.199 17.376,32.730 17.599 M36.472 17.876 C 36.740 18.266,36.998 18.735,37.044 18.918 C 37.126 19.242,37.128 19.242,37.147 18.908 C 37.158 18.720,36.935 18.251,36.652 17.866 C 35.981 16.953,35.842 16.960,36.472 17.876 M54.419 17.614 C 53.488 18.098,52.283 19.307,51.692 20.350 C 51.476 20.729,51.384 20.988,51.486 20.925 C 51.588 20.862,51.814 20.531,51.989 20.188 C 52.470 19.246,53.635 18.172,54.750 17.642 C 55.300 17.381,55.637 17.170,55.500 17.175 C 55.362 17.179,54.876 17.377,54.419 17.614 M59.417 17.435 C 60.492 17.844,60.793 17.877,60.167 17.516 C 59.846 17.332,59.396 17.181,59.167 17.181 C 58.831 17.181,58.880 17.231,59.417 17.435 M194.451 18.208 C 193.364 19.284,192.457 20.510,192.243 21.193 C 192.176 21.408,191.981 21.762,191.810 21.981 C 191.640 22.199,191.505 22.499,191.511 22.647 C 191.518 22.835,191.565 22.809,191.666 22.559 C 191.745 22.362,191.885 22.155,191.976 22.098 C 192.068 22.042,192.235 21.715,192.347 21.373 C 192.724 20.231,194.245 18.328,195.324 17.650 C 195.768 17.371,195.963 17.172,195.793 17.170 C 195.633 17.168,195.029 17.635,194.451 18.208 M199.583 17.603 C 200.133 17.836,200.667 18.133,200.768 18.263 C 201.067 18.645,202.138 19.320,202.629 19.436 C 202.879 19.495,202.633 19.303,202.083 19.009 C 201.533 18.715,201.025 18.371,200.954 18.244 C 200.793 17.958,199.241 17.164,198.861 17.174 C 198.708 17.177,199.033 17.371,199.583 17.603 M241.469 17.568 C 240.169 18.192,237.993 20.142,238.012 20.667 C 238.018 20.821,238.075 20.784,238.162 20.569 C 238.308 20.209,240.636 18.000,240.870 18.000 C 240.944 18.000,241.322 17.857,241.710 17.682 C 242.099 17.507,242.529 17.325,242.667 17.278 C 242.835 17.221,242.808 17.193,242.583 17.193 C 242.400 17.193,241.899 17.362,241.469 17.568 M245.603 17.530 C 246.341 18.088,246.484 18.132,245.923 17.629 C 245.645 17.380,245.350 17.174,245.269 17.171 C 245.188 17.169,245.338 17.330,245.603 17.530 M189.665 17.874 C 189.181 18.602,189.148 18.744,189.572 18.282 C 189.807 18.025,190.000 17.744,190.000 17.657 C 190.000 17.422,189.939 17.462,189.665 17.874 M204.519 17.888 C 204.499 18.211,203.748 19.046,203.332 19.210 C 203.118 19.293,203.119 19.309,203.342 19.320 C 203.742 19.340,204.712 18.256,204.618 17.893 C 204.542 17.598,204.538 17.598,204.519 17.888 M60.962 17.945 C 61.747 18.261,61.669 18.943,60.784 19.500 C 59.227 20.481,58.853 20.742,58.914 20.803 C 58.947 20.836,59.186 20.716,59.445 20.537 C 59.705 20.358,60.348 19.935,60.875 19.597 C 61.936 18.916,61.909 18.956,61.642 18.447 C 61.430 18.046,61.172 17.833,60.917 17.849 C 60.825 17.855,60.845 17.898,60.962 17.945 M41.052 19.083 C 41.053 19.633,41.084 19.838,41.121 19.539 C 41.158 19.239,41.157 18.789,41.119 18.539 C 41.081 18.288,41.051 18.533,41.052 19.083 M48.323 18.595 C 48.077 18.892,47.314 20.703,47.399 20.788 C 47.460 20.849,48.167 19.263,48.167 19.066 C 48.167 18.998,48.291 18.806,48.442 18.638 C 48.594 18.470,48.678 18.333,48.630 18.333 C 48.581 18.333,48.443 18.451,48.323 18.595 M226.770 18.858 C 226.632 19.757,226.502 22.887,226.607 22.782 C 226.709 22.680,226.997 18.456,226.908 18.358 C 226.879 18.326,226.816 18.551,226.770 18.858 M246.500 18.453 C 246.500 18.560,246.582 18.698,246.683 18.760 C 246.784 18.822,246.975 19.108,247.108 19.395 L 247.350 19.917 247.248 19.417 C 247.146 18.918,246.500 18.085,246.500 18.453 M188.706 19.503 C 188.186 20.406,188.241 20.577,188.768 19.697 C 189.005 19.301,189.172 18.950,189.139 18.916 C 189.105 18.883,188.910 19.147,188.706 19.503 M251.340 19.364 C 251.336 19.427,251.417 19.689,251.520 19.947 C 251.622 20.206,251.768 20.829,251.844 21.333 L 251.983 22.250 251.926 21.233 C 251.882 20.447,251.372 18.820,251.340 19.364 M247.346 20.364 C 247.339 20.519,247.422 20.856,247.530 21.114 C 247.639 21.372,247.777 22.071,247.837 22.667 L 247.948 23.750 247.961 22.750 C 247.973 21.874,247.382 19.582,247.346 20.364 M41.202 22.333 C 41.194 23.479,41.264 25.054,41.357 25.833 C 41.450 26.613,41.583 27.738,41.653 28.333 L 41.781 29.417 41.807 28.364 C 41.822 27.785,41.756 27.166,41.661 26.989 C 41.566 26.812,41.427 25.223,41.353 23.458 C 41.230 20.559,41.216 20.451,41.202 22.333 M187.950 20.989 C 187.543 21.677,187.605 21.855,188.024 21.201 C 188.217 20.900,188.343 20.621,188.304 20.581 C 188.265 20.542,188.105 20.726,187.950 20.989 M57.667 21.246 C 57.438 21.377,56.764 21.713,56.169 21.992 C 55.575 22.271,55.183 22.500,55.299 22.500 C 55.591 22.500,57.963 21.362,58.086 21.163 C 58.216 20.951,58.167 20.961,57.667 21.246 M222.409 27.250 C 222.409 30.642,222.431 32.006,222.458 30.281 C 222.485 28.556,222.485 25.781,222.458 24.114 C 222.431 22.447,222.409 23.858,222.409 27.250 M50.769 22.282 C 49.961 23.974,50.269 24.937,51.436 24.371 C 53.516 23.361,53.879 23.167,53.681 23.167 C 53.561 23.167,53.189 23.310,52.856 23.485 C 52.013 23.929,50.751 24.500,50.614 24.500 C 50.385 24.500,50.508 23.491,50.839 22.651 C 51.237 21.643,51.190 21.398,50.769 22.282 M46.856 22.707 C 46.732 23.097,46.605 23.904,46.575 24.500 L 46.520 25.583 46.648 24.583 C 46.719 24.033,46.871 23.301,46.985 22.957 C 47.100 22.612,47.168 22.255,47.138 22.164 C 47.107 22.072,46.980 22.316,46.856 22.707 M54.357 22.839 C 53.840 23.269,54.073 23.264,54.621 22.833 C 54.854 22.650,54.979 22.502,54.897 22.506 C 54.816 22.509,54.573 22.659,54.357 22.839 M187.107 23.313 C 186.941 23.773,186.841 24.285,186.884 24.450 C 186.948 24.698,186.965 24.689,186.981 24.395 C 186.991 24.200,187.116 23.762,187.259 23.422 C 187.401 23.081,187.493 22.729,187.463 22.639 C 187.433 22.548,187.273 22.852,187.107 23.313 M252.067 25.083 C 252.068 26.550,252.093 27.128,252.124 26.367 C 252.155 25.606,252.155 24.406,252.124 23.700 C 252.093 22.994,252.067 23.617,252.067 25.083 M191.107 23.694 C 190.936 24.056,190.831 24.386,190.872 24.428 C 190.914 24.469,191.084 24.202,191.250 23.833 C 191.416 23.465,191.522 23.134,191.484 23.099 C 191.447 23.064,191.277 23.331,191.107 23.694 M59.500 24.408 C 58.804 24.795,56.865 25.667,56.698 25.667 C 56.611 25.667,56.451 25.774,56.342 25.906 C 56.233 26.038,55.905 26.199,55.613 26.264 C 55.322 26.330,55.173 26.414,55.283 26.453 C 55.392 26.491,56.255 26.151,57.199 25.697 C 58.144 25.243,59.079 24.823,59.277 24.763 C 59.475 24.703,59.728 24.544,59.839 24.410 C 60.087 24.111,60.033 24.111,59.500 24.408 M248.053 25.167 C 248.053 25.762,248.084 26.006,248.121 25.708 C 248.158 25.410,248.158 24.923,248.121 24.625 C 248.084 24.327,248.053 24.571,248.053 25.167 M190.705 25.167 C 190.705 25.488,190.740 25.619,190.782 25.458 C 190.823 25.298,190.823 25.035,190.782 24.875 C 190.740 24.715,190.705 24.846,190.705 25.167 M210.596 27.875 C 210.546 29.640,210.462 31.822,210.408 32.724 C 210.290 34.702,210.809 36.333,211.557 36.333 C 211.652 36.333,211.561 36.176,211.355 35.984 C 210.679 35.355,210.646 35.003,210.768 29.719 C 210.833 26.940,210.840 24.667,210.786 24.667 C 210.731 24.667,210.646 26.110,210.596 27.875 M238.070 27.917 C 238.070 29.750,238.094 30.523,238.124 29.634 C 238.154 28.745,238.154 27.245,238.124 26.301 C 238.095 25.356,238.070 26.083,238.070 27.917 M186.728 26.750 C 186.728 27.667,186.756 28.020,186.790 27.536 C 186.824 27.052,186.823 26.302,186.789 25.869 C 186.755 25.437,186.727 25.833,186.728 26.750 M11.739 29.833 C 11.739 32.262,11.763 33.256,11.791 32.042 C 11.820 30.827,11.820 28.840,11.791 27.625 C 11.763 26.410,11.739 27.404,11.739 29.833 M190.550 26.833 C 190.550 27.337,190.581 27.544,190.619 27.292 C 190.658 27.040,190.658 26.627,190.619 26.375 C 190.581 26.123,190.550 26.329,190.550 26.833 M54.509 26.739 C 54.400 26.871,54.108 27.023,53.860 27.077 C 53.613 27.132,53.187 27.324,52.913 27.504 C 52.274 27.925,52.419 27.923,53.250 27.500 C 53.610 27.317,53.982 27.165,54.077 27.163 C 54.319 27.158,55.126 26.508,54.895 26.504 C 54.792 26.502,54.618 26.608,54.509 26.739 M247.860 27.119 C 247.845 27.413,247.683 28.035,247.500 28.500 C 247.317 28.965,247.170 29.437,247.175 29.548 C 247.179 29.659,247.370 29.263,247.599 28.668 C 247.832 28.062,247.987 27.365,247.951 27.085 L 247.887 26.583 247.860 27.119 M37.212 27.500 C 37.212 27.912,37.245 28.081,37.284 27.875 C 37.324 27.669,37.324 27.331,37.284 27.125 C 37.245 26.919,37.212 27.087,37.212 27.500 M46.588 28.284 C 46.637 28.761,46.790 29.398,46.930 29.700 L 47.183 30.250 47.065 29.750 C 47.001 29.475,46.847 28.837,46.724 28.333 L 46.501 27.417 46.588 28.284 M51.098 28.513 L 50.666 29.026 51.280 29.776 C 51.888 30.518,53.553 31.828,53.902 31.839 C 54.002 31.842,54.383 31.990,54.750 32.167 C 55.117 32.344,55.642 32.481,55.917 32.472 C 56.361 32.456,56.371 32.447,56.000 32.382 C 55.253 32.253,53.438 31.469,52.847 31.021 C 52.276 30.588,51.934 30.265,51.211 29.475 L 50.839 29.068 51.327 28.534 C 51.595 28.240,51.750 28.000,51.672 28.000 C 51.594 28.000,51.335 28.231,51.098 28.513 M251.850 28.500 C 251.835 28.729,251.677 29.217,251.500 29.583 C 251.323 29.950,251.175 30.353,251.172 30.480 C 251.165 30.759,250.265 32.372,249.683 33.147 C 247.807 35.647,243.900 36.888,240.250 36.143 C 238.919 35.872,238.261 35.880,238.238 36.167 C 238.224 36.343,238.240 36.350,238.291 36.192 C 238.342 36.034,238.522 35.998,238.890 36.073 C 241.793 36.659,243.831 36.654,245.698 36.056 C 246.460 35.813,247.290 35.456,247.543 35.265 C 248.970 34.184,249.459 33.718,249.978 32.943 C 250.294 32.470,250.688 31.885,250.853 31.642 C 251.017 31.399,251.205 30.986,251.271 30.725 C 251.336 30.464,251.532 29.928,251.706 29.535 C 251.879 29.142,251.989 28.654,251.950 28.452 C 251.884 28.111,251.877 28.115,251.850 28.500 M64.165 29.835 C 63.595 30.478,63.231 30.959,63.356 30.905 C 63.481 30.850,63.942 30.362,64.380 29.819 C 65.355 28.614,66.041 28.482,66.963 29.324 C 67.258 29.594,67.500 29.755,67.500 29.681 C 67.500 29.328,66.404 28.667,65.818 28.667 C 65.264 28.667,65.096 28.785,64.165 29.835 M186.856 29.000 C 186.850 29.229,186.990 29.717,187.167 30.083 C 187.344 30.450,187.497 30.863,187.508 31.000 C 187.519 31.149,187.558 31.172,187.605 31.057 C 187.649 30.951,187.559 30.576,187.406 30.224 C 187.252 29.872,187.069 29.358,186.997 29.083 C 186.878 28.625,186.866 28.618,186.856 29.000 M190.839 28.854 C 190.807 29.481,192.943 31.833,193.544 31.833 C 193.643 31.833,193.384 31.608,192.968 31.333 C 192.182 30.812,191.930 30.531,191.250 29.417 C 191.027 29.050,190.841 28.797,190.839 28.854 M37.439 29.833 C 37.665 31.446,37.824 31.952,37.727 30.750 C 37.676 30.108,37.566 29.471,37.484 29.333 C 37.389 29.176,37.373 29.361,37.439 29.833 M41.883 30.500 C 41.883 31.004,41.915 31.210,41.953 30.958 C 41.991 30.706,41.991 30.294,41.953 30.042 C 41.915 29.790,41.883 29.996,41.883 30.500 M226.579 31.951 C 226.581 33.162,226.634 34.025,226.697 33.868 C 226.840 33.509,226.830 30.916,226.684 30.250 C 226.623 29.975,226.576 30.741,226.579 31.951 M246.723 30.292 C 246.342 30.907,245.640 31.667,245.453 31.667 C 245.370 31.667,245.101 31.809,244.857 31.983 C 244.612 32.157,244.226 32.335,243.998 32.377 L 243.583 32.455 244.019 32.477 C 244.259 32.490,244.646 32.350,244.879 32.167 C 245.112 31.983,245.376 31.833,245.465 31.833 C 245.658 31.833,246.726 30.678,246.992 30.181 C 247.266 29.671,247.055 29.757,246.723 30.292 M67.548 30.750 C 67.549 31.208,67.581 31.376,67.620 31.123 C 67.658 30.869,67.657 30.494,67.617 30.289 C 67.578 30.084,67.546 30.292,67.548 30.750 M202.134 30.490 C 201.908 30.667,201.523 30.863,201.277 30.925 C 201.031 30.986,200.786 31.108,200.733 31.194 C 200.621 31.376,198.947 32.180,198.333 32.347 C 197.957 32.449,197.952 32.462,198.276 32.480 C 198.623 32.499,200.153 31.812,200.667 31.406 C 200.804 31.298,201.192 31.120,201.528 31.013 C 201.865 30.905,202.230 30.708,202.340 30.575 C 203.051 29.719,204.833 30.871,204.833 32.185 C 204.833 33.036,203.496 34.481,202.373 34.843 C 202.030 34.953,201.666 35.110,201.563 35.191 C 201.460 35.273,200.710 35.558,199.896 35.825 C 199.082 36.092,198.508 36.316,198.620 36.322 C 198.893 36.337,201.340 35.534,201.568 35.353 C 201.668 35.275,202.014 35.125,202.336 35.022 C 203.112 34.772,204.651 33.411,204.941 32.718 C 205.572 31.207,203.408 29.488,202.134 30.490 M47.167 30.470 C 47.167 31.194,49.071 33.627,50.278 34.446 C 51.324 35.156,52.701 35.834,53.065 35.818 C 53.302 35.808,53.234 35.751,52.855 35.642 C 51.085 35.133,48.601 33.045,47.708 31.318 C 47.410 30.741,47.167 30.360,47.167 30.470 M214.730 32.750 C 214.731 33.850,214.758 34.278,214.790 33.702 C 214.823 33.125,214.823 32.225,214.790 31.702 C 214.757 31.178,214.730 31.650,214.730 32.750 M62.413 31.254 C 62.227 31.384,61.365 31.713,60.496 31.986 C 59.627 32.258,59.058 32.485,59.230 32.490 C 59.711 32.505,62.200 31.638,62.647 31.300 C 63.114 30.948,62.907 30.907,62.413 31.254 M187.674 31.386 C 187.656 31.720,189.127 33.371,190.500 34.559 C 190.861 34.872,192.342 35.667,192.563 35.666 C 192.666 35.666,192.300 35.429,191.750 35.140 C 190.818 34.650,188.679 32.682,187.966 31.658 C 187.809 31.434,187.678 31.311,187.674 31.386 M42.023 32.021 C 42.010 32.353,42.112 32.944,42.250 33.333 C 42.387 33.723,42.510 34.276,42.523 34.563 C 42.542 35.007,42.557 35.023,42.622 34.676 C 42.664 34.451,42.581 33.814,42.438 33.259 C 42.294 32.704,42.147 32.063,42.111 31.833 C 42.064 31.537,42.039 31.591,42.023 32.021 M67.346 31.838 C 67.312 32.507,65.528 34.064,64.000 34.758 C 62.590 35.399,62.101 35.666,62.338 35.667 C 62.478 35.667,62.740 35.566,62.921 35.443 C 63.102 35.320,63.486 35.139,63.775 35.040 C 65.298 34.524,67.691 32.411,67.447 31.800 C 67.384 31.644,67.356 31.654,67.346 31.838 M194.333 32.167 C 194.654 32.342,195.142 32.481,195.417 32.474 C 195.903 32.462,195.901 32.459,195.333 32.345 C 195.012 32.281,194.586 32.139,194.386 32.031 C 194.186 31.922,193.961 31.836,193.886 31.840 C 193.811 31.844,194.012 31.991,194.333 32.167 M239.750 32.176 C 240.117 32.349,240.642 32.485,240.917 32.476 C 241.405 32.462,241.403 32.459,240.833 32.345 C 240.512 32.281,240.086 32.139,239.886 32.031 C 239.686 31.922,239.423 31.839,239.303 31.847 C 239.182 31.854,239.383 32.002,239.750 32.176 M22.927 33.340 C 22.784 34.795,23.005 35.538,23.720 36.011 L 24.250 36.361 23.802 35.972 C 23.133 35.391,22.962 34.768,23.092 33.378 C 23.155 32.712,23.169 32.167,23.124 32.167 C 23.080 32.167,22.991 32.695,22.927 33.340 M37.872 32.667 C 37.872 32.987,37.906 33.119,37.948 32.958 C 37.990 32.798,37.990 32.535,37.948 32.375 C 37.906 32.215,37.872 32.346,37.872 32.667 M57.295 32.621 C 57.594 32.658,58.044 32.657,58.295 32.619 C 58.545 32.581,58.300 32.551,57.750 32.552 C 57.200 32.553,56.995 32.584,57.295 32.621 M196.627 32.618 C 196.834 32.658,197.134 32.656,197.294 32.615 C 197.453 32.573,197.283 32.540,196.917 32.542 C 196.550 32.544,196.420 32.578,196.627 32.618 M242.294 32.618 C 242.501 32.658,242.801 32.656,242.960 32.615 C 243.120 32.573,242.950 32.540,242.583 32.542 C 242.217 32.544,242.086 32.578,242.294 32.618 M38.011 33.905 C 37.958 35.431,39.340 37.350,40.464 37.312 L 41.083 37.292 40.377 37.176 C 39.988 37.113,39.482 36.884,39.251 36.668 C 38.852 36.293,38.758 36.074,38.244 34.333 C 38.122 33.921,38.017 33.728,38.011 33.905 M27.022 34.167 C 27.009 34.396,26.700 34.977,26.335 35.458 C 25.970 35.940,25.745 36.333,25.834 36.333 C 26.150 36.333,27.197 34.547,27.120 34.140 C 27.046 33.754,27.045 33.755,27.022 34.167 M222.507 34.041 C 222.498 34.428,223.632 35.670,223.978 35.654 C 224.205 35.643,224.208 35.625,224.000 35.549 C 223.571 35.392,222.967 34.772,222.735 34.250 C 222.598 33.941,222.511 33.861,222.507 34.041 M226.260 34.625 C 226.207 34.785,225.921 35.085,225.626 35.292 C 225.330 35.498,225.178 35.667,225.288 35.667 C 225.535 35.667,226.500 34.742,226.500 34.506 C 226.500 34.236,226.366 34.303,226.260 34.625 M11.449 34.835 C 11.073 36.284,9.380 36.803,8.254 35.814 C 7.929 35.529,7.702 35.397,7.751 35.523 C 8.032 36.249,9.713 36.755,10.481 36.343 C 10.890 36.124,11.715 34.896,11.628 34.635 C 11.589 34.516,11.508 34.606,11.449 34.835 M214.078 35.552 C 213.615 36.190,213.493 36.258,212.661 36.348 L 211.750 36.446 212.633 36.473 C 213.527 36.500,214.663 35.700,214.666 35.042 C 214.667 34.750,214.644 34.769,214.078 35.552 M42.519 35.606 C 42.509 35.801,42.200 36.232,41.833 36.564 C 41.466 36.895,41.226 37.167,41.299 37.167 C 41.619 37.167,42.695 35.857,42.618 35.560 C 42.549 35.292,42.536 35.298,42.519 35.606 M60.500 36.000 C 59.996 36.171,59.733 36.314,59.917 36.317 C 60.100 36.320,60.663 36.177,61.167 36.000 C 61.671 35.823,61.933 35.680,61.750 35.683 C 61.567 35.686,61.004 35.829,60.500 36.000 M193.280 35.888 C 193.571 35.995,193.865 36.140,193.932 36.208 C 194.000 36.277,194.287 36.325,194.569 36.314 C 194.903 36.301,194.966 36.269,194.750 36.221 C 194.567 36.180,194.134 36.039,193.788 35.907 C 193.443 35.775,193.068 35.672,192.955 35.679 C 192.842 35.686,192.988 35.780,193.280 35.888 M54.000 36.109 C 54.427 36.301,55.255 36.385,57.083 36.421 L 59.583 36.471 57.075 36.343 C 55.696 36.272,54.407 36.129,54.211 36.024 C 54.015 35.919,53.757 35.836,53.636 35.840 C 53.515 35.843,53.679 35.964,54.000 36.109 M24.627 36.451 C 24.834 36.491,25.134 36.490,25.294 36.448 C 25.453 36.406,25.283 36.374,24.917 36.375 C 24.550 36.377,24.420 36.411,24.627 36.451 M195.964 36.456 C 196.448 36.490,197.198 36.490,197.631 36.456 C 198.063 36.421,197.667 36.394,196.750 36.394 C 195.833 36.395,195.480 36.423,195.964 36.456 M238.074 41.417 C 238.074 44.075,238.097 45.139,238.125 43.781 C 238.153 42.424,238.153 40.249,238.125 38.948 C 238.096 37.647,238.073 38.758,238.074 41.417 M234.016 46.667 C 234.002 46.978,234.123 47.142,234.751 47.665 L 235.250 48.080 234.729 47.498 C 234.442 47.178,234.167 46.804,234.117 46.667 C 234.036 46.444,234.025 46.444,234.016 46.667 M237.846 46.848 C 237.839 46.994,237.553 47.313,237.210 47.557 C 236.868 47.801,236.661 47.998,236.752 47.996 C 237.090 47.986,238.045 47.051,237.953 46.819 C 237.879 46.633,237.857 46.639,237.846 46.848 M235.627 48.118 C 235.834 48.158,236.134 48.156,236.294 48.115 C 236.453 48.073,236.283 48.040,235.917 48.042 C 235.550 48.044,235.420 48.078,235.627 48.118 " stroke="none" fill="#b70ffc" fill-rule="evenodd"/><path id="path1" d="M23.878 1.399 C 23.275 1.951,23.262 1.989,23.287 3.107 C 23.398 8.104,23.286 31.399,23.145 32.788 C 22.882 35.373,23.446 36.418,25.042 36.301 C 26.785 36.174,27.117 35.072,27.270 28.914 C 27.398 23.785,27.387 23.828,29.255 21.002 C 31.694 17.314,35.280 15.843,36.703 17.948 L 37.133 18.583 37.213 23.750 C 37.262 26.953,37.362 29.075,37.475 29.333 C 37.575 29.563,37.769 30.747,37.904 31.965 C 38.324 35.737,39.043 37.167,40.519 37.167 C 42.156 37.167,42.978 35.398,42.272 33.395 C 42.139 33.020,41.943 31.559,41.835 30.148 C 41.727 28.738,41.570 27.366,41.486 27.099 C 41.402 26.833,41.258 24.724,41.167 22.413 C 40.931 16.460,40.403 14.975,38.108 13.802 C 35.386 12.411,31.941 13.347,28.702 16.359 C 28.126 16.895,27.582 17.333,27.494 17.333 C 27.268 17.333,27.272 17.498,27.261 9.583 C 27.252 3.836,27.205 2.337,27.022 2.015 C 26.260 0.677,24.947 0.419,23.878 1.399 M212.245 0.992 C 212.059 1.067,211.711 1.493,211.470 1.939 L 211.034 2.750 210.865 18.833 C 210.719 32.807,210.728 34.985,210.939 35.434 C 211.497 36.624,213.234 36.690,214.099 35.554 L 214.628 34.858 214.744 30.804 C 215.024 21.009,215.208 12.032,215.228 7.195 L 215.250 1.974 214.627 1.404 C 213.981 0.811,213.076 0.655,212.245 0.992 M224.927 3.947 C 223.058 4.464,222.573 6.356,224.083 7.241 C 226.551 8.687,229.326 6.139,227.117 4.454 C 226.535 4.010,225.536 3.779,224.927 3.947 M8.410 6.359 C 8.132 6.432,7.689 6.715,7.427 6.989 L 6.950 7.487 7.042 10.153 C 7.158 13.475,7.367 13.249,4.320 13.094 C 1.655 12.959,1.004 13.189,0.772 14.347 C 0.435 16.033,1.528 16.697,4.995 16.912 C 6.986 17.036,7.092 17.089,7.244 18.048 C 7.430 19.223,7.628 25.307,7.648 30.441 L 7.667 35.299 8.256 35.816 C 9.444 36.859,11.020 36.296,11.521 34.651 C 11.647 34.239,11.685 31.413,11.643 25.606 L 11.582 17.160 12.166 16.997 C 12.487 16.908,13.674 16.835,14.803 16.834 C 16.806 16.833,16.874 16.821,17.575 16.339 C 20.045 14.640,17.401 12.281,13.833 13.001 C 11.565 13.459,11.037 13.163,11.276 11.566 C 11.370 10.937,11.390 10.158,11.321 9.836 C 11.252 9.514,11.108 8.814,11.000 8.280 C 10.703 6.804,9.663 6.033,8.410 6.359 M234.681 12.096 C 233.503 13.088,232.902 17.548,233.693 19.437 C 233.841 19.791,233.918 23.436,233.988 33.366 L 234.083 46.815 234.658 47.408 C 235.392 48.165,236.296 48.226,237.176 47.577 C 237.989 46.977,237.974 47.086,238.005 41.667 C 238.042 35.296,237.893 35.663,240.250 36.143 C 243.900 36.888,247.807 35.647,249.683 33.147 C 250.243 32.401,251.167 30.761,251.167 30.512 C 251.167 30.404,251.335 29.963,251.542 29.533 C 252.103 28.361,252.110 21.672,251.552 20.000 C 251.353 19.404,251.142 18.678,251.084 18.387 C 251.026 18.095,250.876 17.771,250.750 17.667 C 250.624 17.562,250.472 17.251,250.411 16.975 C 250.342 16.660,249.851 16.028,249.094 15.278 C 246.519 12.730,243.655 12.529,239.417 14.599 C 237.713 15.431,237.500 15.391,237.500 14.245 C 237.500 12.055,236.047 10.948,234.681 12.096 M55.583 13.271 C 51.083 14.470,48.113 17.453,47.307 21.583 C 47.217 22.042,47.026 22.828,46.882 23.330 C 45.611 27.769,47.554 32.806,51.367 34.958 C 53.685 36.266,58.094 36.769,60.500 36.000 C 61.074 35.817,61.660 35.667,61.802 35.667 C 61.945 35.667,62.366 35.522,62.739 35.346 C 63.112 35.170,63.679 34.907,64.000 34.762 C 67.020 33.400,68.493 30.721,66.982 29.341 C 66.053 28.493,65.380 28.610,64.388 29.792 C 63.945 30.319,63.530 30.774,63.464 30.804 C 63.398 30.833,63.098 31.022,62.797 31.224 C 60.873 32.513,56.629 33.026,54.801 32.191 C 54.370 31.994,53.951 31.833,53.870 31.833 C 53.556 31.833,51.866 30.491,51.280 29.776 L 50.666 29.026 51.098 28.513 C 51.335 28.231,51.617 28.000,51.723 27.999 C 51.830 27.999,52.367 27.774,52.917 27.500 C 53.467 27.226,54.001 27.001,54.105 27.001 C 54.208 27.000,54.378 26.897,54.483 26.771 C 54.587 26.645,55.008 26.448,55.417 26.333 C 55.826 26.219,56.246 26.022,56.351 25.896 C 56.455 25.770,56.611 25.667,56.698 25.667 C 56.862 25.667,57.838 25.220,61.000 23.696 C 68.267 20.194,66.200 13.548,57.750 13.248 C 56.742 13.212,55.767 13.222,55.583 13.271 M195.583 13.319 C 193.722 13.834,190.000 16.686,190.000 17.598 C 190.000 17.714,189.829 18.020,189.619 18.279 C 187.155 21.329,186.160 26.911,187.456 30.417 C 189.298 35.399,196.864 38.021,201.417 35.253 C 201.600 35.142,202.030 34.959,202.373 34.846 C 203.500 34.477,204.833 33.035,204.833 32.185 C 204.833 30.871,203.051 29.719,202.340 30.575 C 202.230 30.708,201.865 30.905,201.528 31.013 C 201.192 31.120,200.804 31.299,200.667 31.409 C 197.869 33.646,192.688 32.596,191.138 29.479 C 190.357 27.907,190.368 25.135,191.161 23.590 C 191.347 23.227,191.500 22.805,191.500 22.654 C 191.500 22.502,191.640 22.199,191.810 21.981 C 191.981 21.762,192.176 21.408,192.243 21.193 C 192.704 19.724,195.122 17.244,196.261 17.073 C 197.930 16.823,200.489 17.453,200.954 18.230 C 201.831 19.696,204.210 19.367,204.570 17.729 C 204.878 16.327,202.681 14.320,200.384 13.904 C 200.035 13.840,199.557 13.691,199.321 13.572 C 198.790 13.304,196.260 13.132,195.583 13.319 M223.995 13.451 C 222.695 14.347,222.653 14.677,222.543 24.746 C 222.473 31.173,222.500 33.578,222.645 34.018 C 223.103 35.407,224.525 36.034,225.580 35.313 C 226.538 34.658,226.537 34.662,226.574 26.542 C 226.598 21.269,226.665 18.946,226.804 18.614 C 227.932 15.915,225.884 12.149,223.995 13.451 M60.381 17.587 C 61.322 17.997,61.833 18.464,61.833 18.916 C 61.833 18.952,61.402 19.259,60.875 19.597 C 60.348 19.935,59.718 20.348,59.475 20.515 C 59.232 20.682,58.838 20.868,58.598 20.928 C 58.359 20.988,58.123 21.102,58.074 21.181 C 57.954 21.375,55.569 22.500,55.277 22.500 C 55.149 22.500,54.854 22.650,54.621 22.833 C 54.388 23.017,54.140 23.167,54.070 23.167 C 53.933 23.167,52.050 24.030,51.283 24.444 C 50.053 25.108,50.035 23.774,51.239 21.298 C 52.334 19.048,53.665 17.751,55.500 17.146 C 56.452 16.831,59.222 17.082,60.381 17.587 M245.237 17.162 C 245.875 17.404,247.134 18.800,247.253 19.396 C 247.310 19.682,247.510 20.394,247.698 20.977 C 248.310 22.877,248.211 27.175,247.515 28.946 C 247.016 30.217,245.876 31.833,245.479 31.833 C 245.391 31.833,245.098 31.998,244.826 32.198 C 243.694 33.035,239.048 32.455,238.208 31.372 C 238.051 31.169,238.001 29.786,238.005 25.760 L 238.010 20.417 238.468 19.917 C 240.563 17.630,243.415 16.469,245.237 17.162 " stroke="none" fill="#090909" fill-rule="evenodd"/><path id="path2" d="M0.000 24.417 L 0.000 48.833 200.000 48.833 L 400.000 48.833 400.000 40.583 C 400.000 33.534,399.965 32.333,399.761 32.333 C 399.630 32.333,399.477 32.477,399.421 32.652 C 399.266 33.141,397.711 34.283,396.167 35.042 C 393.401 36.402,388.343 36.936,386.167 36.098 C 385.754 35.939,385.118 35.726,384.753 35.625 C 382.019 34.863,379.411 31.511,378.997 28.223 C 378.198 21.890,381.062 15.797,385.833 13.677 C 387.219 13.062,392.190 13.069,393.840 13.689 C 395.557 14.334,397.399 15.866,397.595 16.813 C 397.645 17.053,397.766 17.567,397.863 17.955 C 398.251 19.492,397.269 21.513,395.583 22.645 C 394.968 23.058,391.149 24.976,389.000 25.952 C 388.496 26.181,387.701 26.548,387.233 26.767 C 386.766 26.987,386.306 27.167,386.212 27.167 C 386.118 27.167,385.958 27.267,385.856 27.390 C 385.754 27.512,385.368 27.703,384.999 27.814 C 384.630 27.925,384.067 28.244,383.747 28.525 L 383.167 29.034 383.959 29.864 C 386.137 32.148,389.349 33.065,392.103 32.188 C 392.642 32.016,393.325 31.823,393.621 31.759 C 394.645 31.536,395.833 30.742,396.526 29.816 C 397.447 28.587,398.342 28.315,399.212 29.000 C 399.445 29.183,399.718 29.333,399.818 29.333 C 399.948 29.333,400.000 25.159,400.000 14.667 L 400.000 0.000 200.000 0.000 L 0.000 0.000 0.000 24.417 M26.578 1.234 C 26.950 1.606,27.180 2.022,27.245 2.442 C 27.299 2.795,27.423 3.458,27.521 3.917 C 27.690 4.712,27.649 8.278,27.403 14.221 C 27.268 17.470,27.295 17.491,29.310 15.667 C 30.735 14.375,31.157 14.079,31.917 13.836 C 32.283 13.719,32.689 13.539,32.817 13.437 C 33.200 13.131,37.161 13.101,37.667 13.400 C 37.896 13.536,38.315 13.755,38.597 13.887 C 40.479 14.765,41.084 16.686,41.334 22.575 C 41.427 24.771,41.572 26.796,41.657 27.075 C 41.742 27.355,41.891 28.671,41.989 30.000 C 42.087 31.329,42.279 32.785,42.417 33.235 C 43.093 35.448,42.367 37.091,40.626 37.287 C 38.348 37.544,37.362 33.695,37.178 23.833 L 37.083 18.750 36.534 17.958 C 35.048 15.819,31.028 17.980,28.673 22.182 C 28.532 22.434,28.269 22.889,28.089 23.195 C 27.813 23.662,27.743 24.199,27.648 26.583 C 27.304 35.174,26.932 36.500,24.861 36.500 C 23.392 36.500,22.709 35.210,22.976 32.942 C 23.122 31.706,23.241 7.893,23.126 2.958 C 23.080 0.973,25.239 -0.105,26.578 1.234 M214.848 1.365 C 215.572 2.211,215.617 3.830,215.253 15.667 C 215.209 17.087,215.093 21.881,214.994 26.318 C 214.791 35.452,214.827 35.070,214.076 35.889 C 213.078 36.979,211.387 36.699,210.715 35.333 C 210.298 34.484,210.179 31.915,210.517 31.053 C 210.642 30.732,210.735 26.114,210.809 16.488 L 210.917 2.392 211.383 1.688 C 212.196 0.460,213.935 0.298,214.848 1.365 M325.733 1.315 C 326.551 2.169,326.785 6.555,326.419 14.172 C 326.307 16.505,326.323 16.784,326.580 16.997 C 326.829 17.204,326.885 17.199,327.017 16.964 C 327.152 16.722,327.522 16.350,328.718 15.250 C 331.704 12.505,337.274 12.440,338.966 15.130 C 339.946 16.688,340.170 17.726,340.334 21.484 C 340.521 25.757,341.072 31.756,341.400 33.083 C 341.951 35.316,341.914 35.669,341.023 36.625 C 340.562 37.120,340.433 37.167,339.516 37.167 C 337.993 37.167,337.571 36.619,337.076 34.000 C 336.499 30.952,336.167 26.879,336.167 22.874 C 336.167 17.384,335.543 16.423,332.640 17.440 C 330.624 18.147,329.159 19.636,327.395 22.770 L 326.750 23.917 326.632 26.833 C 326.364 33.488,326.273 34.331,325.725 35.250 C 324.384 37.496,321.682 36.551,321.912 33.917 C 321.968 33.275,322.085 27.837,322.172 21.833 C 322.259 15.829,322.372 9.779,322.423 8.389 C 322.496 6.408,322.461 5.646,322.258 4.865 C 321.809 3.131,322.160 1.465,323.068 1.025 C 323.852 0.645,325.235 0.796,325.733 1.315 M170.560 1.729 C 171.732 2.219,171.754 2.905,171.299 24.083 C 171.010 37.535,171.081 37.167,168.742 37.167 C 166.500 37.167,166.592 37.753,166.827 24.963 C 167.273 0.691,167.183 2.274,168.143 1.753 C 168.707 1.446,169.855 1.435,170.560 1.729 M183.132 2.245 L 183.709 2.875 183.594 13.229 C 183.531 18.924,183.415 23.808,183.338 24.083 C 183.260 24.358,183.152 26.983,183.097 29.917 C 182.988 35.722,182.967 35.896,182.290 36.652 C 181.826 37.172,180.428 37.384,179.589 37.063 C 178.711 36.725,178.106 33.224,178.670 31.740 C 178.776 31.464,178.916 25.870,179.038 17.120 C 179.231 3.218,179.241 2.938,179.581 2.435 C 180.377 1.253,182.137 1.159,183.132 2.245 M227.219 4.292 C 228.929 5.584,227.913 7.750,225.597 7.750 C 223.784 7.750,222.829 6.801,223.119 5.286 C 223.375 3.948,225.942 3.326,227.219 4.292 M352.031 3.995 C 354.813 5.159,353.192 8.365,350.165 7.685 C 347.473 7.080,348.055 3.882,350.864 3.844 C 351.294 3.838,351.819 3.906,352.031 3.995 M75.943 5.016 C 76.720 5.496,77.072 6.361,76.799 7.116 C 75.997 9.333,71.944 8.909,71.944 6.608 C 71.944 4.920,74.282 3.990,75.943 5.016 M159.875 5.298 C 160.324 5.747,160.417 5.967,160.417 6.583 C 160.417 8.961,155.844 9.251,155.403 6.902 C 155.039 4.963,158.352 3.775,159.875 5.298 M10.387 6.732 C 11.188 7.510,11.590 9.266,11.443 11.345 C 11.355 12.574,11.380 12.815,11.600 12.900 C 12.015 13.059,13.121 13.016,13.944 12.809 C 16.073 12.273,18.667 13.336,18.667 14.744 C 18.667 16.419,17.627 17.000,14.631 17.000 C 11.256 17.000,11.638 15.819,11.699 26.065 L 11.750 34.775 11.262 35.481 C 10.477 36.616,9.446 36.847,8.388 36.125 C 7.559 35.559,7.502 35.188,7.482 30.267 C 7.464 25.465,7.255 19.224,7.072 18.029 C 6.940 17.158,7.063 17.206,4.500 17.014 C 1.353 16.777,0.667 16.401,0.667 14.914 C 0.667 13.860,0.891 13.423,1.607 13.083 C 2.329 12.741,2.421 12.737,4.888 12.942 C 7.090 13.125,6.917 13.373,6.917 10.030 L 6.917 7.310 7.539 6.738 C 8.435 5.916,9.544 5.914,10.387 6.732 M90.882 7.582 C 91.688 8.388,92.179 10.788,91.858 12.344 C 91.576 13.709,91.611 13.738,93.316 13.577 C 97.252 13.203,99.388 14.033,99.102 15.826 C 98.864 17.315,97.690 17.814,94.395 17.826 C 92.982 17.831,92.326 17.896,92.215 18.042 C 92.115 18.174,92.116 21.025,92.219 25.833 C 92.411 34.739,92.373 35.349,91.563 36.409 C 90.752 37.472,89.329 37.544,88.434 36.568 L 87.886 35.969 87.763 27.610 C 87.696 23.012,87.589 18.950,87.526 18.583 L 87.412 17.917 85.013 17.796 C 82.344 17.663,81.641 17.400,81.112 16.340 C 80.515 15.143,81.739 13.453,83.189 13.473 C 83.496 13.477,86.368 13.768,86.966 13.856 C 87.430 13.924,87.458 13.745,87.438 10.905 L 87.417 7.976 87.961 7.488 C 88.800 6.736,90.077 6.777,90.882 7.582 M236.869 11.944 C 237.340 12.364,237.667 13.194,237.667 13.974 C 237.667 15.071,237.992 15.163,239.343 14.446 C 239.979 14.109,240.603 13.833,240.731 13.833 C 240.859 13.833,241.291 13.685,241.690 13.504 C 242.750 13.023,245.816 13.021,246.710 13.500 C 247.052 13.683,247.457 13.833,247.610 13.833 C 248.457 13.833,250.900 17.077,251.313 18.750 C 251.403 19.117,251.608 19.754,251.768 20.167 C 252.244 21.394,252.220 28.455,251.737 29.500 C 251.546 29.912,251.336 30.464,251.271 30.725 C 251.205 30.986,251.017 31.399,250.853 31.642 C 250.688 31.885,250.294 32.470,249.978 32.943 C 249.459 33.718,248.970 34.184,247.543 35.265 C 247.290 35.456,246.460 35.813,245.698 36.056 C 243.833 36.654,241.782 36.659,238.898 36.074 C 238.181 35.929,238.172 35.994,238.169 41.185 C 238.166 46.746,238.131 47.027,237.376 47.603 C 236.122 48.560,234.417 48.086,234.005 46.667 C 233.898 46.299,233.831 41.928,233.823 34.833 C 233.816 28.646,233.737 22.721,233.647 21.667 C 233.271 17.245,233.270 14.121,233.644 13.299 C 234.387 11.668,235.863 11.048,236.869 11.944 M117.742 12.569 C 119.219 13.186,119.971 18.541,118.734 19.636 C 117.418 20.801,115.640 20.071,115.393 18.265 C 115.330 17.810,115.124 17.276,114.919 17.037 L 114.555 16.614 113.236 16.961 C 107.504 18.472,104.908 21.310,108.869 21.735 C 111.632 22.031,116.067 24.038,117.119 25.469 C 119.889 29.234,119.248 33.728,115.627 35.933 C 112.235 37.999,104.367 37.494,101.789 35.045 C 99.494 32.864,101.948 29.639,104.356 31.670 C 106.916 33.829,113.112 33.762,114.176 31.564 C 115.309 29.223,113.129 27.304,108.333 26.421 C 102.720 25.388,100.721 21.306,103.917 17.405 C 105.064 16.005,109.165 14.004,110.897 13.999 C 111.091 13.998,111.473 13.881,111.747 13.739 C 112.020 13.597,112.620 13.400,113.080 13.303 C 113.540 13.206,114.142 13.010,114.417 12.869 C 115.483 12.319,116.849 12.196,117.742 12.569 M293.794 13.013 C 295.527 14.528,296.017 19.483,294.588 21.044 C 293.052 22.720,291.168 21.504,291.166 18.834 C 291.165 17.708,290.909 16.731,290.582 16.606 C 290.263 16.483,288.224 16.945,287.583 17.285 C 287.308 17.431,286.858 17.664,286.583 17.803 C 285.906 18.146,283.904 20.192,283.584 20.869 C 283.441 21.170,283.215 21.604,283.081 21.833 C 282.880 22.178,282.838 23.334,282.836 28.550 C 282.833 35.998,282.788 36.190,280.988 36.430 C 279.902 36.575,279.415 36.317,278.916 35.331 L 278.486 34.483 278.564 25.867 C 278.666 14.625,278.754 13.712,279.771 13.325 C 281.054 12.837,282.521 13.591,282.781 14.871 C 282.937 15.636,283.275 15.782,283.798 15.308 C 284.210 14.935,284.783 14.543,286.041 13.773 C 288.417 12.319,292.537 11.915,293.794 13.013 M60.750 13.516 C 63.579 14.373,64.839 15.471,65.409 17.578 C 66.064 19.997,64.647 22.151,61.417 23.649 C 60.775 23.946,60.137 24.261,60.000 24.348 C 59.862 24.435,59.487 24.624,59.167 24.767 C 58.846 24.911,57.897 25.359,57.058 25.764 C 56.219 26.169,55.443 26.500,55.334 26.500 C 55.224 26.500,54.936 26.640,54.692 26.811 C 54.449 26.983,54.063 27.178,53.833 27.245 C 53.604 27.313,53.267 27.461,53.083 27.575 C 52.900 27.689,52.482 27.871,52.154 27.978 C 51.826 28.086,51.402 28.384,51.211 28.642 L 50.865 29.111 51.564 29.847 C 54.944 33.403,61.082 33.351,64.254 29.739 C 65.393 28.441,66.041 28.305,67.019 29.160 C 68.700 30.629,66.946 33.890,63.873 35.009 C 63.622 35.101,63.192 35.280,62.917 35.408 C 59.752 36.881,54.094 36.805,51.583 35.255 C 50.115 34.349,49.681 34.018,48.954 33.254 C 46.903 31.095,45.881 26.768,46.664 23.552 C 46.771 23.111,46.959 22.318,47.081 21.790 C 47.366 20.558,47.983 19.013,48.367 18.573 C 48.532 18.383,48.667 18.146,48.667 18.045 C 48.667 17.561,50.782 15.312,52.119 14.375 C 53.830 13.175,58.194 12.741,60.750 13.516 M199.300 13.396 C 199.547 13.523,200.125 13.708,200.583 13.808 C 203.864 14.524,205.751 17.217,204.095 18.822 C 203.184 19.705,201.700 19.456,200.768 18.263 C 199.960 17.228,196.721 16.827,195.403 17.600 C 194.343 18.222,192.731 20.207,192.351 21.362 C 192.240 21.698,192.046 22.060,191.919 22.165 C 191.792 22.270,191.637 22.595,191.574 22.887 C 191.511 23.178,191.304 23.717,191.115 24.083 C 190.521 25.232,190.593 28.315,191.238 29.417 C 192.849 32.167,196.638 33.287,199.535 31.870 C 200.150 31.569,200.693 31.258,200.742 31.180 C 200.790 31.101,201.031 30.986,201.277 30.925 C 201.523 30.863,201.908 30.667,202.134 30.490 C 203.408 29.488,205.572 31.207,204.941 32.718 C 204.651 33.411,203.112 34.772,202.336 35.022 C 202.014 35.125,201.668 35.275,201.568 35.353 C 200.476 36.214,194.787 36.870,193.981 36.228 C 193.854 36.126,193.450 35.953,193.083 35.842 C 192.336 35.617,190.881 34.896,190.500 34.562 C 188.883 33.146,187.810 31.894,187.587 31.167 C 187.518 30.938,187.302 30.412,187.110 30.000 C 186.500 28.697,186.595 24.732,187.284 22.750 C 188.758 18.509,191.414 14.990,194.083 13.740 C 195.426 13.111,198.363 12.918,199.300 13.396 M226.267 13.757 C 227.267 14.816,227.313 15.391,226.814 20.583 C 226.580 23.017,226.542 29.075,226.745 31.539 C 226.979 34.381,226.310 35.667,224.597 35.667 C 223.300 35.667,222.585 34.869,222.406 33.224 C 222.219 31.493,222.460 15.974,222.688 15.067 C 223.162 13.185,225.069 12.487,226.267 13.757 M269.750 13.652 C 273.508 15.315,274.037 15.966,273.300 18.018 C 272.933 19.038,272.917 19.291,272.917 24.000 L 272.917 28.917 273.442 30.333 C 274.435 33.008,274.660 33.560,274.830 33.730 C 275.611 34.511,274.522 36.389,273.289 36.389 C 272.508 36.389,272.543 36.409,270.766 34.950 C 270.409 34.657,270.034 34.440,269.933 34.469 C 269.746 34.522,267.214 35.646,266.167 36.141 C 264.384 36.983,260.056 36.319,257.989 34.887 C 254.374 32.382,253.351 25.028,255.894 19.826 C 257.457 16.630,260.498 14.193,264.000 13.330 C 265.174 13.041,268.832 13.246,269.750 13.652 M311.000 13.331 C 315.489 14.193,317.992 16.875,316.087 18.780 C 315.241 19.625,314.403 19.569,313.208 18.585 C 312.047 17.629,309.979 16.920,308.833 17.085 C 305.535 17.560,301.891 24.507,302.903 28.391 C 303.838 31.982,309.017 33.684,312.333 31.490 C 312.471 31.399,312.899 31.175,313.285 30.991 C 313.671 30.807,314.026 30.593,314.075 30.514 C 314.410 29.971,315.788 30.193,316.542 30.910 C 318.873 33.130,313.161 36.781,307.904 36.431 C 300.089 35.911,296.387 28.305,300.189 20.581 C 303.118 14.630,306.379 12.443,311.000 13.331 M351.320 13.410 C 352.533 14.037,352.655 15.149,352.173 21.167 C 352.036 22.885,351.999 25.399,352.062 28.674 C 352.123 31.769,352.096 33.824,351.991 34.205 C 351.432 36.229,348.546 36.162,347.981 34.113 C 347.762 33.318,347.904 16.078,348.139 14.916 C 348.436 13.446,349.978 12.716,351.320 13.410 M360.779 13.566 C 361.054 13.798,361.413 14.406,361.640 15.024 C 361.855 15.607,362.174 16.404,362.349 16.796 C 362.524 17.188,362.669 17.638,362.672 17.796 C 362.675 17.954,362.862 18.458,363.087 18.917 C 363.312 19.375,363.498 19.929,363.498 20.147 C 363.499 20.365,363.640 20.778,363.811 21.064 C 363.982 21.349,364.210 21.947,364.317 22.390 C 364.425 22.834,364.615 23.359,364.740 23.557 C 364.865 23.755,365.021 24.179,365.087 24.500 C 365.153 24.821,365.338 25.346,365.498 25.667 C 365.658 25.988,365.840 26.535,365.903 26.884 C 366.114 28.046,367.019 28.559,367.355 27.708 C 367.454 27.456,367.653 26.988,367.797 26.667 C 368.065 26.068,368.422 25.155,368.907 23.833 C 369.058 23.421,369.282 22.858,369.404 22.583 C 369.527 22.308,369.721 21.783,369.835 21.417 C 369.950 21.050,370.114 20.660,370.201 20.551 C 370.288 20.442,370.462 19.992,370.588 19.551 C 370.892 18.493,371.458 16.873,371.741 16.250 C 373.073 13.321,373.221 13.155,374.469 13.178 C 376.508 13.217,377.021 14.603,376.005 17.333 C 375.715 18.112,375.357 19.087,375.210 19.500 C 375.063 19.912,374.805 20.475,374.638 20.750 C 374.471 21.025,374.334 21.402,374.334 21.588 C 374.334 21.774,374.231 22.074,374.106 22.255 C 373.981 22.435,373.823 22.771,373.755 23.000 C 373.687 23.229,373.494 23.717,373.324 24.083 C 373.155 24.450,372.785 25.313,372.503 26.000 C 372.221 26.688,371.886 27.475,371.760 27.750 C 371.633 28.025,371.292 28.813,371.002 29.500 C 370.712 30.188,370.330 31.027,370.154 31.366 C 369.978 31.705,369.833 32.081,369.833 32.201 C 369.833 32.321,369.652 32.760,369.431 33.176 C 369.209 33.592,368.973 34.229,368.905 34.591 C 368.630 36.072,367.380 36.816,365.958 36.347 C 365.057 36.050,364.635 35.363,363.744 32.750 C 363.588 32.292,363.319 31.612,363.147 31.239 C 362.974 30.866,362.833 30.451,362.833 30.316 C 362.833 30.181,362.692 29.792,362.518 29.452 C 362.345 29.112,362.152 28.630,362.089 28.381 C 362.027 28.132,361.831 27.611,361.654 27.223 C 361.478 26.836,361.333 26.418,361.333 26.294 C 361.333 26.171,361.186 25.781,361.005 25.426 C 360.824 25.072,360.553 24.410,360.402 23.955 C 360.251 23.501,360.024 22.931,359.898 22.690 C 359.772 22.448,359.668 22.146,359.668 22.018 C 359.667 21.891,359.525 21.478,359.352 21.102 C 359.178 20.725,358.834 19.854,358.586 19.167 C 358.338 18.479,357.983 17.579,357.798 17.167 C 356.818 14.980,357.575 13.167,359.468 13.167 C 360.111 13.167,360.418 13.260,360.779 13.566 M75.162 14.542 C 75.882 15.303,75.902 15.477,75.734 19.405 C 75.651 21.336,75.583 25.579,75.583 28.833 C 75.583 34.064,75.550 34.823,75.298 35.381 C 74.714 36.670,72.829 36.858,71.835 35.727 L 71.318 35.138 71.368 25.444 C 71.420 15.164,71.406 15.338,72.244 14.458 C 72.928 13.740,74.445 13.783,75.162 14.542 M126.476 14.687 C 126.839 15.180,127.010 15.637,127.083 16.312 C 127.140 16.828,127.259 17.700,127.347 18.250 C 127.436 18.800,127.617 20.379,127.750 21.759 C 127.882 23.139,128.103 24.802,128.240 25.455 C 128.378 26.107,128.541 27.266,128.602 28.029 C 128.786 30.294,129.111 30.727,129.492 29.213 C 129.602 28.778,129.753 28.345,129.829 28.252 C 129.905 28.159,130.054 27.746,130.160 27.333 C 130.266 26.921,130.494 26.208,130.666 25.750 C 131.083 24.638,131.475 23.432,131.747 22.417 C 131.871 21.958,132.083 21.283,132.219 20.917 C 132.607 19.872,133.292 17.643,133.422 17.000 C 134.316 12.603,138.011 12.990,138.764 17.559 C 138.898 18.371,139.073 19.159,139.153 19.309 C 139.233 19.460,139.350 20.108,139.411 20.750 C 139.473 21.392,139.662 22.554,139.832 23.333 C 140.001 24.113,140.221 25.387,140.321 26.167 C 140.588 28.256,141.221 31.046,141.445 31.120 C 141.565 31.161,141.713 30.817,141.833 30.218 C 141.940 29.685,142.163 28.837,142.329 28.333 C 142.684 27.252,143.102 25.553,143.422 23.887 C 143.549 23.228,143.762 22.428,143.896 22.107 C 144.030 21.786,144.192 21.087,144.257 20.554 C 144.321 20.020,144.476 19.333,144.601 19.027 C 144.726 18.721,144.914 17.971,145.019 17.360 C 145.472 14.715,146.001 14.000,147.504 14.000 C 149.215 14.000,149.929 15.231,149.439 17.333 C 148.730 20.373,148.536 21.123,148.382 21.423 C 148.290 21.603,148.121 22.237,148.008 22.831 C 147.894 23.426,147.705 24.101,147.587 24.331 C 147.469 24.562,147.318 25.087,147.251 25.500 C 147.184 25.912,146.988 26.565,146.815 26.949 C 146.642 27.334,146.500 27.802,146.500 27.989 C 146.500 28.177,146.320 28.875,146.100 29.540 C 145.880 30.206,145.607 31.108,145.494 31.546 C 145.380 31.984,145.223 32.382,145.144 32.431 C 145.065 32.480,145.000 32.651,145.000 32.812 C 145.000 34.662,142.145 37.782,140.768 37.436 C 139.834 37.202,138.000 34.754,138.000 33.741 C 138.000 33.609,137.855 33.070,137.677 32.542 C 137.500 32.015,137.275 31.045,137.178 30.387 C 137.080 29.728,136.935 29.016,136.854 28.803 C 136.774 28.591,136.660 27.854,136.601 27.167 C 136.464 25.572,136.128 23.500,136.007 23.500 C 135.819 23.500,135.000 24.353,134.999 24.548 C 134.999 24.659,134.774 25.200,134.500 25.750 C 134.226 26.300,134.001 26.902,134.001 27.088 C 134.000 27.274,133.898 27.574,133.773 27.755 C 133.648 27.935,133.429 28.458,133.288 28.917 C 133.146 29.375,132.793 30.350,132.504 31.083 C 131.977 32.422,131.471 33.772,131.110 34.804 C 130.123 37.629,127.215 37.928,126.347 35.294 C 126.235 34.952,126.078 34.631,125.999 34.583 C 125.920 34.534,125.767 34.064,125.659 33.539 C 125.551 33.013,125.362 32.389,125.240 32.151 C 125.118 31.913,124.970 31.313,124.912 30.818 C 124.853 30.322,124.697 29.572,124.564 29.152 C 124.432 28.731,124.218 27.527,124.087 26.477 C 123.957 25.426,123.777 24.372,123.686 24.135 C 123.596 23.898,123.445 22.890,123.350 21.894 C 123.255 20.898,123.071 19.671,122.942 19.167 C 122.055 15.723,122.706 14.000,124.893 14.000 C 125.963 14.000,125.975 14.005,126.476 14.687 M158.442 14.245 C 159.534 15.010,159.626 15.964,159.170 21.833 C 159.040 23.507,159.002 26.206,159.063 29.500 C 159.181 35.959,159.045 36.411,156.988 36.411 C 155.856 36.411,155.276 36.002,155.001 35.012 C 154.809 34.324,154.796 24.037,154.979 18.709 L 155.101 15.167 155.666 14.584 C 156.308 13.921,157.732 13.748,158.442 14.245 M264.804 17.485 C 264.008 17.745,263.146 18.120,262.887 18.320 C 262.129 18.904,260.500 20.543,260.500 20.721 C 260.500 20.811,260.322 21.118,260.105 21.403 C 259.888 21.687,259.654 22.182,259.585 22.502 C 259.516 22.822,259.356 23.286,259.230 23.533 C 258.505 24.953,259.197 29.560,260.350 30.996 C 261.942 32.977,265.819 32.966,268.199 30.973 L 269.043 30.266 268.937 28.341 C 268.878 27.283,268.760 25.892,268.674 25.250 C 268.435 23.469,268.471 20.659,268.751 19.330 C 269.049 17.913,269.073 17.968,267.893 17.427 C 266.738 16.898,266.592 16.901,264.804 17.485 M388.167 17.233 C 387.846 17.364,387.283 17.583,386.917 17.720 C 386.184 17.993,384.839 19.213,384.459 19.949 C 384.326 20.206,384.100 20.642,383.957 20.917 C 382.411 23.889,382.818 25.180,384.814 23.640 C 385.033 23.471,385.305 23.333,385.418 23.333 C 385.795 23.333,390.358 21.154,392.000 20.190 C 393.557 19.276,393.831 19.077,393.832 18.864 C 393.838 17.749,389.768 16.578,388.167 17.233 M54.750 17.642 C 53.683 18.149,52.474 19.238,52.051 20.073 C 51.909 20.354,51.702 20.696,51.591 20.833 C 51.284 21.213,50.498 23.522,50.499 24.042 C 50.500 24.592,50.523 24.594,51.489 24.149 C 52.565 23.654,53.514 23.225,54.000 23.015 C 54.229 22.917,54.529 22.767,54.667 22.682 C 54.804 22.598,55.329 22.342,55.833 22.114 C 57.821 21.216,59.102 20.589,59.500 20.321 C 59.729 20.166,60.307 19.796,60.784 19.497 C 61.793 18.865,61.727 18.186,60.625 17.851 C 60.327 17.761,59.783 17.573,59.417 17.434 C 58.215 16.978,55.933 17.080,54.750 17.642 M242.667 17.278 C 242.529 17.325,242.099 17.507,241.710 17.682 C 241.322 17.857,240.940 18.000,240.862 18.000 C 240.784 18.000,240.127 18.553,239.402 19.229 L 238.083 20.458 238.141 25.854 C 238.204 31.767,238.139 31.450,239.382 31.885 C 241.510 32.629,243.871 32.685,244.815 32.013 C 245.083 31.823,245.370 31.667,245.453 31.667 C 245.895 31.667,246.911 30.163,247.480 28.667 C 247.951 27.429,248.101 22.312,247.689 21.542 C 247.581 21.340,247.419 20.780,247.328 20.296 C 247.237 19.812,247.014 19.213,246.831 18.965 C 246.649 18.717,246.500 18.442,246.500 18.355 C 246.500 17.582,243.909 16.855,242.667 17.278 " stroke="none" fill-rule="evenodd" fill="#ffffff"/></g></svg>